%FSLAX24Y24*%
%MOIN*%
G70*
G01*
G75*
G04 Layer_Physical_Order=2*
G04 Layer_Color=16711680*
%ADD10R,0.0354X0.0276*%
%ADD11R,0.0512X0.0591*%
%ADD12R,0.0276X0.0354*%
%ADD13R,0.0256X0.0630*%
%ADD14O,0.0118X0.1181*%
%ADD15O,0.1181X0.0118*%
%ADD16R,0.1358X0.1358*%
%ADD17O,0.0768X0.0236*%
%ADD18O,0.0236X0.0768*%
%ADD19R,0.0118X0.0315*%
%ADD20R,0.0315X0.0157*%
%ADD21R,0.0118X0.0787*%
%ADD22C,0.0120*%
%ADD23R,0.0335X0.0374*%
%ADD24C,0.0080*%
%ADD25C,0.0197*%
%ADD26C,0.0118*%
%ADD27C,0.0276*%
%ADD28C,0.0200*%
%ADD29C,0.0150*%
%ADD30C,0.0100*%
%ADD31C,0.0250*%
%ADD32C,0.0394*%
%ADD33C,0.0236*%
%ADD34C,0.0984*%
%ADD35C,0.0591*%
%ADD36R,0.0591X0.0591*%
%ADD37C,0.0709*%
%ADD38R,0.0669X0.0669*%
%ADD39C,0.0669*%
%ADD40C,0.0200*%
%ADD41C,0.0394*%
%ADD42C,0.0240*%
G36*
X20197Y3543D02*
X79D01*
Y26772D01*
X20197D01*
Y3543D01*
D02*
G37*
%LPC*%
G36*
X17800Y17641D02*
X17760Y17636D01*
X17676Y17601D01*
X17604Y17545D01*
X17549Y17473D01*
X17514Y17389D01*
X17509Y17349D01*
X17800D01*
Y17641D01*
D02*
G37*
G36*
X11900D02*
Y17349D01*
X12192D01*
X12187Y17389D01*
X12152Y17473D01*
X12097Y17545D01*
X12025Y17601D01*
X11941Y17636D01*
X11900Y17641D01*
D02*
G37*
G36*
X7244Y18736D02*
X7186Y18724D01*
X7136Y18691D01*
X7103Y18641D01*
X7091Y18583D01*
Y17748D01*
X7083Y17736D01*
X7071Y17677D01*
X7083Y17619D01*
X7116Y17569D01*
X7166Y17536D01*
X7224Y17524D01*
X7283Y17536D01*
X7333Y17569D01*
X7352Y17589D01*
X7385Y17638D01*
X7397Y17697D01*
Y18583D01*
X7385Y18641D01*
X7352Y18691D01*
X7303Y18724D01*
X7244Y18736D01*
D02*
G37*
G36*
X17900Y17641D02*
Y17349D01*
X18192D01*
X18187Y17389D01*
X18152Y17473D01*
X18097Y17545D01*
X18025Y17601D01*
X17941Y17636D01*
X17900Y17641D01*
D02*
G37*
G36*
X17800Y17249D02*
X17509D01*
X17514Y17209D01*
X17549Y17125D01*
X17604Y17053D01*
X17676Y16998D01*
X17760Y16963D01*
X17800Y16958D01*
Y17249D01*
D02*
G37*
G36*
X12192D02*
X11900D01*
Y16958D01*
X11941Y16963D01*
X12025Y16998D01*
X12097Y17053D01*
X12152Y17125D01*
X12187Y17209D01*
X12192Y17249D01*
D02*
G37*
G36*
X11800Y17641D02*
X11760Y17636D01*
X11676Y17601D01*
X11604Y17545D01*
X11549Y17473D01*
X11514Y17389D01*
X11509Y17349D01*
X11800D01*
Y17641D01*
D02*
G37*
G36*
X18192Y17249D02*
X17900D01*
Y16958D01*
X17941Y16963D01*
X18025Y16998D01*
X18097Y17053D01*
X18152Y17125D01*
X18187Y17209D01*
X18192Y17249D01*
D02*
G37*
G36*
X11659Y18964D02*
X11619Y18958D01*
X11535Y18924D01*
X11462Y18868D01*
X11407Y18796D01*
X11372Y18712D01*
X11367Y18672D01*
X11659D01*
Y18964D01*
D02*
G37*
G36*
X8543Y19562D02*
X8485Y19551D01*
X8435Y19518D01*
X8402Y19468D01*
X8390Y19409D01*
X8402Y19351D01*
X8435Y19301D01*
X8485Y19268D01*
X8491Y19267D01*
Y18780D01*
X8475Y18770D01*
X8441Y18720D01*
X8430Y18661D01*
X8441Y18603D01*
X8475Y18553D01*
X8524Y18520D01*
X8583Y18508D01*
X8641Y18520D01*
X8691Y18553D01*
X8724Y18603D01*
X8736Y18661D01*
X8724Y18720D01*
X8691Y18770D01*
X8674Y18781D01*
Y19336D01*
X8685Y19351D01*
X8696Y19409D01*
X8685Y19468D01*
X8651Y19518D01*
X8602Y19551D01*
X8543Y19562D01*
D02*
G37*
G36*
X827Y19108D02*
X806D01*
X771Y19101D01*
X741Y19082D01*
X721Y19052D01*
X714Y19017D01*
X721Y18982D01*
X741Y18952D01*
X771Y18932D01*
X806Y18925D01*
X827D01*
X862Y18932D01*
X892Y18952D01*
X912Y18982D01*
X919Y19017D01*
X912Y19052D01*
X892Y19082D01*
X862Y19101D01*
X827Y19108D01*
D02*
G37*
G36*
X11759Y18964D02*
Y18672D01*
X12050D01*
X12045Y18712D01*
X12010Y18796D01*
X11955Y18868D01*
X11883Y18924D01*
X11799Y18958D01*
X11759Y18964D01*
D02*
G37*
G36*
X14709Y18970D02*
X14619Y18958D01*
X14535Y18924D01*
X14462Y18868D01*
X14407Y18796D01*
X14372Y18712D01*
X14360Y18622D01*
X14372Y18532D01*
X14407Y18448D01*
X14462Y18376D01*
X14535Y18320D01*
X14619Y18286D01*
X14709Y18274D01*
X14799Y18286D01*
X14883Y18320D01*
X14955Y18376D01*
X15010Y18448D01*
X15045Y18532D01*
X15057Y18622D01*
X15045Y18712D01*
X15010Y18796D01*
X14955Y18868D01*
X14883Y18924D01*
X14799Y18958D01*
X14709Y18970D01*
D02*
G37*
G36*
X10974Y20182D02*
X10926Y20173D01*
X10916Y20171D01*
X10866Y20138D01*
X9996Y19267D01*
X9744D01*
X9686Y19255D01*
X9636Y19222D01*
X9603Y19173D01*
X9591Y19114D01*
X9603Y19056D01*
X9636Y19006D01*
X10906Y17736D01*
X10955Y17703D01*
X11014Y17692D01*
X11072Y17703D01*
X11122Y17736D01*
X11155Y17786D01*
X11167Y17844D01*
X11155Y17903D01*
X11122Y17953D01*
X10144Y18931D01*
X10150Y18995D01*
X10167Y19006D01*
X11083Y19921D01*
X11116Y19971D01*
X11118Y19981D01*
X11127Y20030D01*
X11116Y20088D01*
X11083Y20138D01*
X11033Y20171D01*
X10974Y20182D01*
D02*
G37*
G36*
X12050Y18572D02*
X11759D01*
Y18280D01*
X11799Y18286D01*
X11883Y18320D01*
X11955Y18376D01*
X12010Y18448D01*
X12045Y18532D01*
X12050Y18572D01*
D02*
G37*
G36*
X11659D02*
X11367D01*
X11372Y18532D01*
X11407Y18448D01*
X11462Y18376D01*
X11535Y18320D01*
X11619Y18286D01*
X11659Y18280D01*
Y18572D01*
D02*
G37*
G36*
X15850Y16647D02*
X15760Y16636D01*
X15676Y16601D01*
X15604Y16545D01*
X15549Y16473D01*
X15514Y16389D01*
X15502Y16299D01*
X15514Y16209D01*
X15549Y16125D01*
X15604Y16053D01*
X15676Y15998D01*
X15760Y15963D01*
X15850Y15951D01*
X15941Y15963D01*
X16025Y15998D01*
X16097Y16053D01*
X16152Y16125D01*
X16187Y16209D01*
X16199Y16299D01*
X16187Y16389D01*
X16152Y16473D01*
X16097Y16545D01*
X16025Y16601D01*
X15941Y16636D01*
X15850Y16647D01*
D02*
G37*
G36*
X14850D02*
X14760Y16636D01*
X14676Y16601D01*
X14604Y16545D01*
X14549Y16473D01*
X14514Y16389D01*
X14502Y16299D01*
X14514Y16209D01*
X14549Y16125D01*
X14604Y16053D01*
X14676Y15998D01*
X14760Y15963D01*
X14850Y15951D01*
X14941Y15963D01*
X15025Y15998D01*
X15097Y16053D01*
X15152Y16125D01*
X15187Y16209D01*
X15199Y16299D01*
X15187Y16389D01*
X15152Y16473D01*
X15097Y16545D01*
X15025Y16601D01*
X14941Y16636D01*
X14850Y16647D01*
D02*
G37*
G36*
X17850D02*
X17760Y16636D01*
X17676Y16601D01*
X17604Y16545D01*
X17549Y16473D01*
X17514Y16389D01*
X17502Y16299D01*
X17514Y16209D01*
X17549Y16125D01*
X17604Y16053D01*
X17676Y15998D01*
X17760Y15963D01*
X17850Y15951D01*
X17941Y15963D01*
X18025Y15998D01*
X18097Y16053D01*
X18152Y16125D01*
X18187Y16209D01*
X18199Y16299D01*
X18187Y16389D01*
X18152Y16473D01*
X18097Y16545D01*
X18025Y16601D01*
X17941Y16636D01*
X17850Y16647D01*
D02*
G37*
G36*
X16850D02*
X16760Y16636D01*
X16676Y16601D01*
X16604Y16545D01*
X16549Y16473D01*
X16514Y16389D01*
X16502Y16299D01*
X16514Y16209D01*
X16549Y16125D01*
X16604Y16053D01*
X16676Y15998D01*
X16760Y15963D01*
X16850Y15951D01*
X16941Y15963D01*
X17025Y15998D01*
X17097Y16053D01*
X17152Y16125D01*
X17187Y16209D01*
X17199Y16299D01*
X17187Y16389D01*
X17152Y16473D01*
X17097Y16545D01*
X17025Y16601D01*
X16941Y16636D01*
X16850Y16647D01*
D02*
G37*
G36*
X16147Y6736D02*
X16142Y6735D01*
X16136Y6736D01*
X16001Y6723D01*
X15996Y6720D01*
X15991Y6721D01*
X15861Y6682D01*
X15857Y6678D01*
X15851Y6678D01*
X15732Y6614D01*
X15728Y6609D01*
X15723Y6608D01*
X15618Y6522D01*
X15615Y6517D01*
X15610Y6514D01*
X15524Y6409D01*
X15523Y6404D01*
X15518Y6400D01*
X15454Y6281D01*
X15454Y6275D01*
X15450Y6271D01*
X15411Y6141D01*
X15411Y6135D01*
X15409Y6131D01*
X15396Y5995D01*
X15397Y5990D01*
X15396Y5985D01*
X15409Y5850D01*
X15411Y5845D01*
X15411Y5839D01*
X15450Y5710D01*
X15454Y5705D01*
X15454Y5700D01*
X15518Y5580D01*
X15523Y5577D01*
X15524Y5571D01*
X15610Y5466D01*
X15615Y5464D01*
X15618Y5459D01*
X15723Y5373D01*
X15728Y5371D01*
X15732Y5367D01*
X15851Y5303D01*
X15857Y5302D01*
X15861Y5299D01*
X15991Y5259D01*
X15996Y5260D01*
X16001Y5257D01*
X16136Y5244D01*
X16142Y5246D01*
X16147Y5244D01*
X16282Y5257D01*
X16287Y5260D01*
X16293Y5259D01*
X16422Y5299D01*
X16427Y5302D01*
X16432Y5303D01*
X16552Y5367D01*
X16555Y5371D01*
X16561Y5373D01*
X16666Y5459D01*
X16668Y5464D01*
X16673Y5466D01*
X16759Y5571D01*
X16761Y5577D01*
X16765Y5580D01*
X16829Y5700D01*
X16830Y5705D01*
X16833Y5710D01*
X16873Y5839D01*
X16872Y5845D01*
X16875Y5850D01*
X16888Y5985D01*
X16886Y5990D01*
X16888Y5995D01*
X16875Y6131D01*
X16872Y6135D01*
X16873Y6141D01*
X16833Y6271D01*
X16830Y6275D01*
X16829Y6281D01*
X16765Y6400D01*
X16761Y6404D01*
X16759Y6409D01*
X16673Y6514D01*
X16668Y6517D01*
X16666Y6522D01*
X16561Y6608D01*
X16555Y6609D01*
X16552Y6614D01*
X16432Y6678D01*
X16427Y6678D01*
X16422Y6682D01*
X16293Y6721D01*
X16287Y6720D01*
X16282Y6723D01*
X16147Y6736D01*
D02*
G37*
G36*
X4139D02*
X4134Y6735D01*
X4129Y6736D01*
X3993Y6723D01*
X3989Y6720D01*
X3983Y6721D01*
X3853Y6682D01*
X3849Y6678D01*
X3843Y6678D01*
X3724Y6614D01*
X3720Y6609D01*
X3715Y6608D01*
X3610Y6522D01*
X3607Y6517D01*
X3602Y6514D01*
X3516Y6409D01*
X3515Y6404D01*
X3510Y6400D01*
X3447Y6281D01*
X3446Y6275D01*
X3442Y6271D01*
X3403Y6141D01*
X3404Y6135D01*
X3401Y6131D01*
X3388Y5995D01*
X3389Y5990D01*
X3388Y5985D01*
X3401Y5850D01*
X3404Y5845D01*
X3403Y5839D01*
X3442Y5710D01*
X3446Y5705D01*
X3447Y5700D01*
X3510Y5580D01*
X3515Y5577D01*
X3516Y5571D01*
X3602Y5466D01*
X3607Y5464D01*
X3610Y5459D01*
X3715Y5373D01*
X3720Y5371D01*
X3724Y5367D01*
X3843Y5303D01*
X3849Y5302D01*
X3853Y5299D01*
X3983Y5259D01*
X3989Y5260D01*
X3993Y5257D01*
X4129Y5244D01*
X4134Y5246D01*
X4139Y5244D01*
X4274Y5257D01*
X4279Y5260D01*
X4285Y5259D01*
X4414Y5299D01*
X4419Y5302D01*
X4424Y5303D01*
X4544Y5367D01*
X4548Y5371D01*
X4553Y5373D01*
X4658Y5459D01*
X4660Y5464D01*
X4665Y5466D01*
X4751Y5571D01*
X4753Y5577D01*
X4757Y5580D01*
X4821Y5700D01*
X4822Y5705D01*
X4825Y5710D01*
X4865Y5839D01*
X4864Y5845D01*
X4867Y5850D01*
X4880Y5985D01*
X4878Y5990D01*
X4880Y5995D01*
X4867Y6131D01*
X4864Y6135D01*
X4865Y6141D01*
X4825Y6271D01*
X4822Y6275D01*
X4821Y6281D01*
X4757Y6400D01*
X4753Y6404D01*
X4751Y6409D01*
X4665Y6514D01*
X4660Y6517D01*
X4658Y6522D01*
X4553Y6608D01*
X4548Y6609D01*
X4544Y6614D01*
X4424Y6678D01*
X4419Y6678D01*
X4414Y6682D01*
X4285Y6721D01*
X4279Y6720D01*
X4274Y6723D01*
X4139Y6736D01*
D02*
G37*
G36*
X13850Y16647D02*
X13760Y16636D01*
X13676Y16601D01*
X13604Y16545D01*
X13549Y16473D01*
X13514Y16389D01*
X13502Y16299D01*
X13514Y16209D01*
X13549Y16125D01*
X13604Y16053D01*
X13676Y15998D01*
X13760Y15963D01*
X13850Y15951D01*
X13941Y15963D01*
X14025Y15998D01*
X14097Y16053D01*
X14152Y16125D01*
X14187Y16209D01*
X14199Y16299D01*
X14187Y16389D01*
X14152Y16473D01*
X14097Y16545D01*
X14025Y16601D01*
X13941Y16636D01*
X13850Y16647D01*
D02*
G37*
G36*
X12850D02*
X12760Y16636D01*
X12676Y16601D01*
X12604Y16545D01*
X12549Y16473D01*
X12514Y16389D01*
X12502Y16299D01*
X12514Y16209D01*
X12549Y16125D01*
X12604Y16053D01*
X12676Y15998D01*
X12760Y15963D01*
X12850Y15951D01*
X12941Y15963D01*
X13025Y15998D01*
X13097Y16053D01*
X13152Y16125D01*
X13187Y16209D01*
X13199Y16299D01*
X13187Y16389D01*
X13152Y16473D01*
X13097Y16545D01*
X13025Y16601D01*
X12941Y16636D01*
X12850Y16647D01*
D02*
G37*
G36*
X15850Y17647D02*
X15760Y17636D01*
X15676Y17601D01*
X15604Y17545D01*
X15549Y17473D01*
X15514Y17389D01*
X15502Y17299D01*
X15514Y17209D01*
X15549Y17125D01*
X15604Y17053D01*
X15676Y16998D01*
X15760Y16963D01*
X15850Y16951D01*
X15941Y16963D01*
X16025Y16998D01*
X16097Y17053D01*
X16152Y17125D01*
X16187Y17209D01*
X16199Y17299D01*
X16187Y17389D01*
X16152Y17473D01*
X16097Y17545D01*
X16025Y17601D01*
X15941Y17636D01*
X15850Y17647D01*
D02*
G37*
G36*
X14850D02*
X14760Y17636D01*
X14676Y17601D01*
X14604Y17545D01*
X14549Y17473D01*
X14514Y17389D01*
X14502Y17299D01*
X14514Y17209D01*
X14549Y17125D01*
X14604Y17053D01*
X14676Y16998D01*
X14760Y16963D01*
X14850Y16951D01*
X14941Y16963D01*
X15025Y16998D01*
X15097Y17053D01*
X15152Y17125D01*
X15187Y17209D01*
X15199Y17299D01*
X15187Y17389D01*
X15152Y17473D01*
X15097Y17545D01*
X15025Y17601D01*
X14941Y17636D01*
X14850Y17647D01*
D02*
G37*
G36*
X11800Y17249D02*
X11509D01*
X11514Y17209D01*
X11549Y17125D01*
X11604Y17053D01*
X11676Y16998D01*
X11760Y16963D01*
X11800Y16958D01*
Y17249D01*
D02*
G37*
G36*
X16850Y17647D02*
X16760Y17636D01*
X16676Y17601D01*
X16604Y17545D01*
X16549Y17473D01*
X16514Y17389D01*
X16502Y17299D01*
X16514Y17209D01*
X16549Y17125D01*
X16604Y17053D01*
X16676Y16998D01*
X16760Y16963D01*
X16850Y16951D01*
X16941Y16963D01*
X17025Y16998D01*
X17097Y17053D01*
X17152Y17125D01*
X17187Y17209D01*
X17199Y17299D01*
X17187Y17389D01*
X17152Y17473D01*
X17097Y17545D01*
X17025Y17601D01*
X16941Y17636D01*
X16850Y17647D01*
D02*
G37*
G36*
X4921Y16688D02*
X2953D01*
X2894Y16677D01*
X2845Y16644D01*
X2811Y16594D01*
X2800Y16535D01*
X2811Y16477D01*
X2845Y16427D01*
X2894Y16394D01*
X2953Y16382D01*
X4921D01*
X4980Y16394D01*
X5029Y16427D01*
X5063Y16477D01*
X5074Y16535D01*
X5063Y16594D01*
X5029Y16644D01*
X4980Y16677D01*
X4921Y16688D01*
D02*
G37*
G36*
X12196Y16644D02*
X11505D01*
Y15954D01*
X12196D01*
Y16644D01*
D02*
G37*
G36*
X13850Y17647D02*
X13760Y17636D01*
X13676Y17601D01*
X13604Y17545D01*
X13549Y17473D01*
X13514Y17389D01*
X13502Y17299D01*
X13514Y17209D01*
X13549Y17125D01*
X13604Y17053D01*
X13676Y16998D01*
X13760Y16963D01*
X13850Y16951D01*
X13941Y16963D01*
X14025Y16998D01*
X14097Y17053D01*
X14152Y17125D01*
X14187Y17209D01*
X14199Y17299D01*
X14187Y17389D01*
X14152Y17473D01*
X14097Y17545D01*
X14025Y17601D01*
X13941Y17636D01*
X13850Y17647D01*
D02*
G37*
G36*
X12850D02*
X12760Y17636D01*
X12676Y17601D01*
X12604Y17545D01*
X12549Y17473D01*
X12514Y17389D01*
X12502Y17299D01*
X12514Y17209D01*
X12549Y17125D01*
X12604Y17053D01*
X12676Y16998D01*
X12760Y16963D01*
X12850Y16951D01*
X12941Y16963D01*
X13025Y16998D01*
X13097Y17053D01*
X13152Y17125D01*
X13187Y17209D01*
X13199Y17299D01*
X13187Y17389D01*
X13152Y17473D01*
X13097Y17545D01*
X13025Y17601D01*
X12941Y17636D01*
X12850Y17647D01*
D02*
G37*
G36*
X9793Y24375D02*
X9701Y24363D01*
X9569Y24308D01*
X9456Y24221D01*
X9369Y24108D01*
X9314Y23976D01*
X9302Y23885D01*
X9793D01*
Y24375D01*
D02*
G37*
G36*
X10383Y23785D02*
X9893D01*
Y23294D01*
X9984Y23306D01*
X10116Y23361D01*
X10229Y23448D01*
X10316Y23561D01*
X10371Y23693D01*
X10383Y23785D01*
D02*
G37*
G36*
X19134Y24651D02*
X19044Y24640D01*
X18960Y24605D01*
X18888Y24549D01*
X18832Y24477D01*
X18797Y24393D01*
X18786Y24303D01*
X18797Y24213D01*
X18832Y24129D01*
X18888Y24057D01*
X18960Y24002D01*
X19044Y23967D01*
X19134Y23955D01*
X19224Y23967D01*
X19308Y24002D01*
X19380Y24057D01*
X19435Y24129D01*
X19470Y24213D01*
X19482Y24303D01*
X19470Y24393D01*
X19435Y24477D01*
X19380Y24549D01*
X19308Y24605D01*
X19224Y24640D01*
X19134Y24651D01*
D02*
G37*
G36*
X9893Y24375D02*
Y23885D01*
X10383D01*
X10371Y23976D01*
X10316Y24108D01*
X10229Y24221D01*
X10116Y24308D01*
X9984Y24363D01*
X9893Y24375D01*
D02*
G37*
G36*
X17782Y23004D02*
Y22652D01*
X18134D01*
X18126Y22708D01*
X18085Y22806D01*
X18021Y22891D01*
X17936Y22956D01*
X17838Y22996D01*
X17782Y23004D01*
D02*
G37*
G36*
X17682D02*
X17627Y22996D01*
X17528Y22956D01*
X17444Y22891D01*
X17379Y22806D01*
X17338Y22708D01*
X17331Y22652D01*
X17682D01*
Y23004D01*
D02*
G37*
G36*
X9793Y23785D02*
X9302D01*
X9314Y23693D01*
X9369Y23561D01*
X9456Y23448D01*
X9569Y23361D01*
X9701Y23306D01*
X9793Y23294D01*
Y23785D01*
D02*
G37*
G36*
X19774Y22995D02*
X19579D01*
X19544Y22988D01*
X19514Y22968D01*
X19363Y22817D01*
X19341Y22821D01*
X19283Y22810D01*
X19233Y22777D01*
X19200Y22727D01*
X19189Y22668D01*
X19200Y22610D01*
X19233Y22560D01*
X19283Y22527D01*
X19341Y22515D01*
X19400Y22527D01*
X19450Y22560D01*
X19483Y22610D01*
X19494Y22668D01*
X19491Y22686D01*
X19617Y22812D01*
X19736D01*
X19790Y22757D01*
Y22521D01*
X19784Y22516D01*
X19765Y22486D01*
X19758Y22451D01*
Y22261D01*
X19761Y22246D01*
Y21832D01*
X19744Y21821D01*
X19711Y21771D01*
X19699Y21713D01*
X19711Y21654D01*
X19744Y21604D01*
X19794Y21571D01*
X19852Y21560D01*
X19911Y21571D01*
X19961Y21604D01*
X19994Y21654D01*
X20005Y21713D01*
X19994Y21771D01*
X19961Y21821D01*
X19944Y21832D01*
Y22258D01*
X19941Y22273D01*
Y22413D01*
X19947Y22418D01*
X19967Y22448D01*
X19974Y22483D01*
Y22795D01*
X19967Y22830D01*
X19947Y22860D01*
X19839Y22968D01*
X19809Y22988D01*
X19774Y22995D01*
D02*
G37*
G36*
X19184Y25645D02*
Y25353D01*
X19476D01*
X19470Y25393D01*
X19435Y25477D01*
X19380Y25549D01*
X19308Y25605D01*
X19224Y25640D01*
X19184Y25645D01*
D02*
G37*
G36*
X19084D02*
X19044Y25640D01*
X18960Y25605D01*
X18888Y25549D01*
X18832Y25477D01*
X18797Y25393D01*
X18792Y25353D01*
X19084D01*
Y25645D01*
D02*
G37*
G36*
X16147Y26528D02*
X16142Y26526D01*
X16136Y26528D01*
X16001Y26514D01*
X15996Y26512D01*
X15991Y26512D01*
X15861Y26473D01*
X15857Y26469D01*
X15851Y26469D01*
X15732Y26405D01*
X15728Y26401D01*
X15723Y26399D01*
X15618Y26313D01*
X15615Y26308D01*
X15610Y26305D01*
X15524Y26200D01*
X15523Y26195D01*
X15518Y26192D01*
X15454Y26072D01*
X15454Y26066D01*
X15450Y26062D01*
X15411Y25932D01*
X15411Y25927D01*
X15409Y25922D01*
X15396Y25787D01*
X15397Y25782D01*
X15396Y25776D01*
X15409Y25641D01*
X15411Y25636D01*
X15411Y25631D01*
X15450Y25501D01*
X15454Y25497D01*
X15454Y25491D01*
X15518Y25371D01*
X15523Y25368D01*
X15524Y25363D01*
X15610Y25258D01*
X15615Y25255D01*
X15618Y25250D01*
X15723Y25164D01*
X15728Y25162D01*
X15732Y25158D01*
X15851Y25094D01*
X15857Y25094D01*
X15861Y25090D01*
X15991Y25051D01*
X15996Y25051D01*
X16001Y25049D01*
X16136Y25035D01*
X16142Y25037D01*
X16147Y25035D01*
X16282Y25049D01*
X16287Y25051D01*
X16293Y25051D01*
X16422Y25090D01*
X16427Y25094D01*
X16432Y25094D01*
X16552Y25158D01*
X16555Y25162D01*
X16561Y25164D01*
X16666Y25250D01*
X16668Y25255D01*
X16673Y25258D01*
X16759Y25363D01*
X16761Y25368D01*
X16765Y25371D01*
X16829Y25491D01*
X16830Y25497D01*
X16833Y25501D01*
X16873Y25631D01*
X16872Y25636D01*
X16875Y25641D01*
X16888Y25776D01*
X16886Y25782D01*
X16888Y25787D01*
X16875Y25922D01*
X16872Y25927D01*
X16873Y25932D01*
X16833Y26062D01*
X16830Y26066D01*
X16829Y26072D01*
X16765Y26192D01*
X16761Y26195D01*
X16759Y26200D01*
X16673Y26305D01*
X16668Y26308D01*
X16666Y26313D01*
X16561Y26399D01*
X16555Y26401D01*
X16552Y26405D01*
X16432Y26469D01*
X16427Y26469D01*
X16422Y26473D01*
X16293Y26512D01*
X16287Y26512D01*
X16282Y26514D01*
X16147Y26528D01*
D02*
G37*
G36*
X4139D02*
X4134Y26526D01*
X4129Y26528D01*
X3993Y26514D01*
X3989Y26512D01*
X3983Y26512D01*
X3853Y26473D01*
X3849Y26469D01*
X3843Y26469D01*
X3724Y26405D01*
X3720Y26401D01*
X3715Y26399D01*
X3610Y26313D01*
X3607Y26308D01*
X3602Y26305D01*
X3516Y26200D01*
X3515Y26195D01*
X3510Y26192D01*
X3447Y26072D01*
X3446Y26066D01*
X3442Y26062D01*
X3403Y25932D01*
X3404Y25927D01*
X3401Y25922D01*
X3388Y25787D01*
X3389Y25782D01*
X3388Y25776D01*
X3401Y25641D01*
X3404Y25636D01*
X3403Y25631D01*
X3442Y25501D01*
X3446Y25497D01*
X3447Y25491D01*
X3510Y25371D01*
X3515Y25368D01*
X3516Y25363D01*
X3602Y25258D01*
X3607Y25255D01*
X3610Y25250D01*
X3715Y25164D01*
X3720Y25162D01*
X3724Y25158D01*
X3843Y25094D01*
X3849Y25094D01*
X3853Y25090D01*
X3983Y25051D01*
X3989Y25051D01*
X3993Y25049D01*
X4129Y25035D01*
X4134Y25037D01*
X4139Y25035D01*
X4274Y25049D01*
X4279Y25051D01*
X4285Y25051D01*
X4414Y25090D01*
X4419Y25094D01*
X4424Y25094D01*
X4544Y25158D01*
X4548Y25162D01*
X4553Y25164D01*
X4658Y25250D01*
X4660Y25255D01*
X4665Y25258D01*
X4751Y25363D01*
X4753Y25368D01*
X4757Y25371D01*
X4821Y25491D01*
X4822Y25497D01*
X4825Y25501D01*
X4865Y25631D01*
X4864Y25636D01*
X4867Y25641D01*
X4880Y25776D01*
X4878Y25782D01*
X4880Y25787D01*
X4867Y25922D01*
X4864Y25927D01*
X4865Y25932D01*
X4825Y26062D01*
X4822Y26066D01*
X4821Y26072D01*
X4757Y26192D01*
X4753Y26195D01*
X4751Y26200D01*
X4665Y26305D01*
X4660Y26308D01*
X4658Y26313D01*
X4553Y26399D01*
X4548Y26401D01*
X4544Y26405D01*
X4424Y26469D01*
X4419Y26469D01*
X4414Y26473D01*
X4285Y26512D01*
X4279Y26512D01*
X4274Y26514D01*
X4139Y26528D01*
D02*
G37*
G36*
X11196Y25660D02*
X10426D01*
Y24891D01*
X11196D01*
Y25660D01*
D02*
G37*
G36*
X11811Y25664D02*
X11711Y25650D01*
X11617Y25612D01*
X11537Y25550D01*
X11475Y25470D01*
X11436Y25376D01*
X11423Y25276D01*
X11436Y25175D01*
X11475Y25082D01*
X11537Y25001D01*
X11617Y24940D01*
X11711Y24901D01*
X11811Y24888D01*
X11911Y24901D01*
X12005Y24940D01*
X12085Y25001D01*
X12147Y25082D01*
X12186Y25175D01*
X12199Y25276D01*
X12186Y25376D01*
X12147Y25470D01*
X12085Y25550D01*
X12005Y25612D01*
X11911Y25650D01*
X11811Y25664D01*
D02*
G37*
G36*
X19476Y25253D02*
X19184D01*
Y24961D01*
X19224Y24967D01*
X19308Y25002D01*
X19380Y25057D01*
X19435Y25129D01*
X19470Y25213D01*
X19476Y25253D01*
D02*
G37*
G36*
X19084D02*
X18792D01*
X18797Y25213D01*
X18832Y25129D01*
X18888Y25057D01*
X18960Y25002D01*
X19044Y24967D01*
X19084Y24961D01*
Y25253D01*
D02*
G37*
G36*
X18134Y22552D02*
X17782D01*
Y22201D01*
X17838Y22208D01*
X17936Y22249D01*
X18021Y22314D01*
X18085Y22398D01*
X18126Y22497D01*
X18134Y22552D01*
D02*
G37*
G36*
X17682Y20052D02*
X17331D01*
X17338Y19997D01*
X17379Y19898D01*
X17444Y19814D01*
X17528Y19749D01*
X17627Y19708D01*
X17682Y19701D01*
Y20052D01*
D02*
G37*
G36*
X15732Y23010D02*
X15627Y22996D01*
X15528Y22956D01*
X15444Y22891D01*
X15379Y22806D01*
X15338Y22708D01*
X15324Y22602D01*
X15338Y22497D01*
X15379Y22398D01*
X15444Y22314D01*
X15528Y22249D01*
X15627Y22208D01*
X15641Y22207D01*
Y20498D01*
X15627Y20496D01*
X15528Y20456D01*
X15444Y20391D01*
X15379Y20306D01*
X15338Y20208D01*
X15324Y20102D01*
X15338Y19997D01*
X15379Y19898D01*
X15444Y19814D01*
X15528Y19749D01*
X15627Y19708D01*
X15732Y19695D01*
X15838Y19708D01*
X15936Y19749D01*
X16021Y19814D01*
X16085Y19898D01*
X16126Y19997D01*
X16140Y20102D01*
X16126Y20208D01*
X16085Y20306D01*
X16021Y20391D01*
X15936Y20456D01*
X15838Y20496D01*
X15824Y20498D01*
Y22207D01*
X15838Y22208D01*
X15936Y22249D01*
X16021Y22314D01*
X16085Y22398D01*
X16126Y22497D01*
X16140Y22602D01*
X16126Y22708D01*
X16085Y22806D01*
X16021Y22891D01*
X15936Y22956D01*
X15838Y22996D01*
X15732Y23010D01*
D02*
G37*
G36*
X1043Y20171D02*
X1032D01*
X997Y20164D01*
X968Y20145D01*
X948Y20115D01*
X941Y20080D01*
X948Y20045D01*
X968Y20015D01*
X997Y19995D01*
X1032Y19988D01*
X1043D01*
X1078Y19995D01*
X1108Y20015D01*
X1128Y20045D01*
X1135Y20080D01*
X1128Y20115D01*
X1108Y20145D01*
X1078Y20164D01*
X1043Y20171D01*
D02*
G37*
G36*
X18134Y20052D02*
X17782D01*
Y19701D01*
X17838Y19708D01*
X17936Y19749D01*
X18021Y19814D01*
X18085Y19898D01*
X18126Y19997D01*
X18134Y20052D01*
D02*
G37*
G36*
X827Y19601D02*
X818D01*
X783Y19594D01*
X753Y19574D01*
X733Y19544D01*
X726Y19509D01*
X733Y19474D01*
X753Y19444D01*
X783Y19424D01*
X818Y19417D01*
X827D01*
X862Y19424D01*
X892Y19444D01*
X912Y19474D01*
X919Y19509D01*
X912Y19544D01*
X892Y19574D01*
X862Y19594D01*
X827Y19601D01*
D02*
G37*
G36*
X18878Y19543D02*
X18819Y19531D01*
X18770Y19498D01*
X18737Y19448D01*
X18725Y19390D01*
X18729Y19370D01*
X18065Y18707D01*
X18045Y18677D01*
X18038Y18642D01*
Y18466D01*
X17992Y18447D01*
X17752Y18687D01*
X17722Y18707D01*
X17687Y18714D01*
X16054D01*
Y18967D01*
X15363D01*
Y18277D01*
X16054D01*
Y18530D01*
X17649D01*
X17981Y18198D01*
X17977Y18179D01*
X17989Y18121D01*
X18022Y18071D01*
X18071Y18038D01*
X18130Y18026D01*
X18188Y18038D01*
X18238Y18071D01*
X18271Y18121D01*
X18283Y18179D01*
X18271Y18238D01*
X18238Y18287D01*
X18222Y18298D01*
Y18604D01*
X18859Y19241D01*
X18878Y19237D01*
X18936Y19248D01*
X18986Y19282D01*
X19019Y19331D01*
X19031Y19390D01*
X19019Y19448D01*
X18986Y19498D01*
X18936Y19531D01*
X18878Y19543D01*
D02*
G37*
G36*
X7686Y19758D02*
X7678D01*
X7642Y19751D01*
X7613Y19731D01*
X7593Y19701D01*
X7586Y19666D01*
X7593Y19631D01*
X7613Y19601D01*
X7642Y19582D01*
X7678Y19575D01*
X7686D01*
X7721Y19582D01*
X7751Y19601D01*
X7771Y19631D01*
X7778Y19666D01*
X7771Y19701D01*
X7751Y19731D01*
X7721Y19751D01*
X7686Y19758D01*
D02*
G37*
G36*
X13583Y19848D02*
X13524Y19836D01*
X13475Y19803D01*
X13441Y19753D01*
X13430Y19695D01*
X13434Y19676D01*
X12726Y18968D01*
X12709Y18970D01*
X12619Y18958D01*
X12535Y18924D01*
X12462Y18868D01*
X12407Y18796D01*
X12372Y18712D01*
X12360Y18622D01*
X12372Y18532D01*
X12407Y18448D01*
X12462Y18376D01*
X12535Y18320D01*
X12619Y18286D01*
X12709Y18274D01*
X12799Y18286D01*
X12883Y18320D01*
X12955Y18376D01*
X13010Y18448D01*
X13045Y18532D01*
X13057Y18622D01*
X13045Y18712D01*
X13010Y18796D01*
X12955Y18868D01*
X12946Y18875D01*
X12943Y18925D01*
X13563Y19546D01*
X13583Y19542D01*
X13633Y19552D01*
X13652Y19531D01*
X13662Y19511D01*
X13644Y19492D01*
X13624Y19462D01*
X13617Y19427D01*
Y18958D01*
X13535Y18924D01*
X13462Y18868D01*
X13407Y18796D01*
X13372Y18712D01*
X13360Y18622D01*
X13372Y18532D01*
X13407Y18448D01*
X13462Y18376D01*
X13535Y18320D01*
X13619Y18286D01*
X13709Y18274D01*
X13799Y18286D01*
X13883Y18320D01*
X13955Y18376D01*
X14010Y18448D01*
X14045Y18532D01*
X14057Y18622D01*
X14045Y18712D01*
X14010Y18796D01*
X13955Y18868D01*
X13883Y18924D01*
X13800Y18958D01*
Y19389D01*
X13937Y19526D01*
X13957Y19522D01*
X14015Y19534D01*
X14065Y19567D01*
X14098Y19617D01*
X14110Y19675D01*
X14098Y19734D01*
X14065Y19783D01*
X14015Y19816D01*
X13957Y19828D01*
X13898Y19816D01*
X13849Y19783D01*
X13815Y19734D01*
X13804Y19675D01*
X13808Y19656D01*
X13767Y19615D01*
X13747Y19625D01*
X13726Y19645D01*
X13736Y19695D01*
X13724Y19753D01*
X13691Y19803D01*
X13641Y19836D01*
X13583Y19848D01*
D02*
G37*
G36*
X18622Y21688D02*
X18564Y21677D01*
X18514Y21644D01*
X18481Y21594D01*
X18469Y21535D01*
X18473Y21516D01*
X17952Y20995D01*
X17933Y21007D01*
X17874Y21019D01*
X17815Y21007D01*
X17766Y20974D01*
X17733Y20925D01*
X17721Y20866D01*
X17733Y20808D01*
X17766Y20758D01*
X17815Y20725D01*
X17874Y20713D01*
X17933Y20725D01*
X17982Y20758D01*
X18006Y20793D01*
X18018Y20801D01*
X18603Y21386D01*
X18622Y21382D01*
X18681Y21394D01*
X18730Y21427D01*
X18763Y21477D01*
X18775Y21535D01*
X18763Y21594D01*
X18730Y21644D01*
X18681Y21677D01*
X18622Y21688D01*
D02*
G37*
G36*
X9843Y22381D02*
X9701Y22363D01*
X9569Y22308D01*
X9456Y22221D01*
X9369Y22108D01*
X9314Y21976D01*
X9296Y21835D01*
X9314Y21693D01*
X9369Y21561D01*
X9456Y21448D01*
X9569Y21361D01*
X9701Y21306D01*
X9843Y21288D01*
X9984Y21306D01*
X10116Y21361D01*
X10229Y21448D01*
X10316Y21561D01*
X10371Y21693D01*
X10389Y21835D01*
X10371Y21976D01*
X10316Y22108D01*
X10229Y22221D01*
X10116Y22308D01*
X9984Y22363D01*
X9843Y22381D01*
D02*
G37*
G36*
X17682Y22552D02*
X17331D01*
X17338Y22497D01*
X17379Y22398D01*
X17444Y22314D01*
X17528Y22249D01*
X17627Y22208D01*
X17682Y22201D01*
Y22552D01*
D02*
G37*
G36*
X18346Y21964D02*
X18288Y21952D01*
X18238Y21919D01*
X18205Y21870D01*
X18193Y21811D01*
X18197Y21792D01*
X18112Y21706D01*
X17757D01*
X17746Y21722D01*
X17696Y21755D01*
X17638Y21767D01*
X17579Y21755D01*
X17530Y21722D01*
X17497Y21673D01*
X17485Y21614D01*
X17497Y21556D01*
X17530Y21506D01*
X17579Y21473D01*
X17638Y21461D01*
X17696Y21473D01*
X17746Y21506D01*
X17757Y21522D01*
X18150D01*
X18150Y21522D01*
X18185Y21529D01*
X18214Y21549D01*
X18327Y21662D01*
X18346Y21658D01*
X18405Y21670D01*
X18455Y21703D01*
X18488Y21752D01*
X18499Y21811D01*
X18488Y21870D01*
X18455Y21919D01*
X18405Y21952D01*
X18346Y21964D01*
D02*
G37*
G36*
X17682Y20504D02*
X17627Y20496D01*
X17528Y20456D01*
X17444Y20391D01*
X17379Y20306D01*
X17338Y20208D01*
X17331Y20152D01*
X17682D01*
Y20504D01*
D02*
G37*
G36*
X16594Y21964D02*
X16536Y21952D01*
X16486Y21919D01*
X16453Y21870D01*
X16442Y21811D01*
X16453Y21753D01*
X16486Y21703D01*
X16503Y21692D01*
Y20326D01*
X16486Y20315D01*
X16453Y20265D01*
X16442Y20207D01*
X16453Y20148D01*
X16486Y20099D01*
X16536Y20065D01*
X16594Y20054D01*
X16653Y20065D01*
X16703Y20099D01*
X16736Y20148D01*
X16747Y20207D01*
X16736Y20265D01*
X16703Y20315D01*
X16686Y20326D01*
Y21692D01*
X16703Y21703D01*
X16736Y21753D01*
X16747Y21811D01*
X16736Y21870D01*
X16703Y21919D01*
X16653Y21952D01*
X16594Y21964D01*
D02*
G37*
G36*
X16299Y21767D02*
X16241Y21755D01*
X16191Y21722D01*
X16158Y21673D01*
X16146Y21614D01*
X16158Y21556D01*
X16191Y21506D01*
X16207Y21495D01*
Y20552D01*
X16191Y20541D01*
X16158Y20492D01*
X16146Y20433D01*
X16158Y20375D01*
X16191Y20325D01*
X16241Y20292D01*
X16299Y20280D01*
X16358Y20292D01*
X16407Y20325D01*
X16441Y20375D01*
X16452Y20433D01*
X16441Y20492D01*
X16407Y20541D01*
X16391Y20552D01*
Y21495D01*
X16407Y21506D01*
X16441Y21556D01*
X16452Y21614D01*
X16441Y21673D01*
X16407Y21722D01*
X16358Y21755D01*
X16299Y21767D01*
D02*
G37*
G36*
X17782Y20504D02*
Y20152D01*
X18134D01*
X18126Y20208D01*
X18085Y20306D01*
X18021Y20391D01*
X17936Y20456D01*
X17838Y20496D01*
X17782Y20504D01*
D02*
G37*
%LPD*%
D24*
X7678Y19666D02*
X7686D01*
X18130Y18179D02*
Y18642D01*
X18878Y19390D01*
X19343Y22667D02*
X19579Y22904D01*
X19852Y21713D02*
Y22258D01*
X19849Y22261D02*
X19852Y22258D01*
X19849Y22261D02*
Y22451D01*
X19882Y22483D01*
Y22795D01*
X19774Y22904D02*
X19882Y22795D01*
X19579Y22904D02*
X19774D01*
X19341Y22668D02*
X19343Y22667D01*
X806Y19017D02*
X827D01*
X818Y19509D02*
X827D01*
X1032Y20080D02*
X1043D01*
X15732Y20102D02*
Y22602D01*
X8583Y18661D02*
X8583Y18661D01*
X8583Y18661D02*
Y19370D01*
X8543Y19409D02*
X8583Y19370D01*
X18150Y21614D02*
X18346Y21811D01*
X18150Y21614D02*
X18150Y21614D01*
X17638Y21614D02*
X18150D01*
X17953Y20866D02*
X18622Y21535D01*
X17874Y20866D02*
X17953D01*
X12709Y18821D02*
X13583Y19695D01*
X12709Y18622D02*
Y18821D01*
X13709Y19427D02*
X13957Y19675D01*
X13709Y18622D02*
Y19427D01*
X16299Y20433D02*
Y21614D01*
X16594Y20207D02*
Y21811D01*
X15709Y18622D02*
X17687D01*
X18130Y18179D01*
D28*
X10059Y19114D02*
X10974Y20030D01*
X9744Y19114D02*
X10059D01*
X9744D02*
X11014Y17844D01*
X2953Y16535D02*
X4921D01*
X7224Y17677D02*
X7244Y17697D01*
Y18583D01*
D32*
X12795Y31299D02*
X13189Y30906D01*
Y29724D02*
Y30906D01*
Y29724D02*
X13583Y29331D01*
X13583D01*
X12008Y31299D02*
X12402Y30906D01*
Y29724D02*
Y30906D01*
Y29724D02*
X12795Y29331D01*
X12795D01*
X11220Y31299D02*
X11614Y30906D01*
Y29724D02*
Y30906D01*
Y29724D02*
X12008Y29331D01*
X12008D01*
X10433Y31299D02*
X10827Y30906D01*
Y29724D02*
Y30906D01*
Y29724D02*
X11220Y29331D01*
X11220D01*
X9646Y31299D02*
X10039Y30906D01*
Y29724D02*
Y30906D01*
Y29724D02*
X10433Y29331D01*
X10433D01*
X8858Y31299D02*
X9252Y30906D01*
Y29724D02*
Y30906D01*
Y29724D02*
X9646Y29331D01*
X9646D01*
X8071Y31299D02*
X8465Y30906D01*
Y29724D02*
Y30906D01*
Y29724D02*
X8858Y29331D01*
X8858D01*
X7283Y31299D02*
X7677Y30906D01*
Y29724D02*
Y30906D01*
Y29724D02*
X8071Y29331D01*
X8071D01*
X7283D02*
X7283D01*
X6890Y29724D02*
X7283Y29331D01*
X6890Y29724D02*
Y30906D01*
X6496Y31299D02*
X6890Y30906D01*
D34*
X9843Y23835D02*
D03*
Y21835D02*
D03*
D35*
X19134Y24303D02*
D03*
Y25303D02*
D03*
X17850Y17299D02*
D03*
Y16299D02*
D03*
X16850Y17299D02*
D03*
Y16299D02*
D03*
X15850Y17299D02*
D03*
Y16299D02*
D03*
X14850Y17299D02*
D03*
Y16299D02*
D03*
X13850Y17299D02*
D03*
Y16299D02*
D03*
X12850Y17299D02*
D03*
Y16299D02*
D03*
X11850Y17299D02*
D03*
X14709Y18622D02*
D03*
X13709D02*
D03*
X12709D02*
D03*
X11709D02*
D03*
D36*
X11850Y16299D02*
D03*
X15709Y18622D02*
D03*
D37*
X15732Y20102D02*
D03*
Y22602D02*
D03*
X17732D02*
D03*
Y20102D02*
D03*
D38*
X10811Y25276D02*
D03*
D39*
X11811D02*
D03*
D40*
X2953Y18819D02*
D03*
X6713Y17520D02*
D03*
Y16929D02*
D03*
X6969Y24567D02*
D03*
X8445Y21713D02*
D03*
Y22726D02*
D03*
X7736Y18701D02*
D03*
X7678Y19666D02*
D03*
X7667Y20138D02*
D03*
X7638Y20847D02*
D03*
X10974Y20030D02*
D03*
X18130Y18179D02*
D03*
X18878Y19390D02*
D03*
X19852Y21713D02*
D03*
X19341Y22668D02*
D03*
X11014Y17844D02*
D03*
X9744Y19114D02*
D03*
X19331Y19587D02*
D03*
X18937Y20689D02*
D03*
X20039Y22372D02*
D03*
X19252Y22106D02*
D03*
X18120Y22972D02*
D03*
X15020Y22717D02*
D03*
X14478Y23327D02*
D03*
X16280Y23750D02*
D03*
X14184Y24942D02*
D03*
X13150Y25354D02*
D03*
X12677Y25364D02*
D03*
X11132Y20512D02*
D03*
X11329Y18242D02*
D03*
X10866Y19439D02*
D03*
X9587Y18583D02*
D03*
X9724Y20522D02*
D03*
X9222Y20827D02*
D03*
X5256Y22854D02*
D03*
X4902Y22539D02*
D03*
X4646Y22549D02*
D03*
X4232Y22766D02*
D03*
X3780Y23297D02*
D03*
X3307Y23297D02*
D03*
X5502Y17087D02*
D03*
X4701Y16788D02*
D03*
X3209Y16860D02*
D03*
X827Y19017D02*
D03*
Y19509D02*
D03*
X1043Y20080D02*
D03*
X1043Y20541D02*
D03*
X1063Y20945D02*
D03*
X7244Y18583D02*
D03*
X2953Y16535D02*
D03*
X4921D02*
D03*
X8583Y18661D02*
D03*
X8543Y19409D02*
D03*
X17638Y21614D02*
D03*
X18622Y21535D02*
D03*
X17874Y20866D02*
D03*
X18346Y21811D02*
D03*
X7008Y26220D02*
D03*
Y25669D02*
D03*
X6969Y24016D02*
D03*
X13583Y19695D02*
D03*
X13957Y19675D02*
D03*
X16299Y21614D02*
D03*
X16594Y21811D02*
D03*
X16299Y20433D02*
D03*
X16594Y20207D02*
D03*
X7224Y17677D02*
D03*
X2362Y18346D02*
D03*
X945Y17283D02*
D03*
X1772Y21614D02*
D03*
X2205Y22087D02*
D03*
X2283Y21378D02*
D03*
X2835Y21220D02*
D03*
X3268Y21654D02*
D03*
X6339Y18346D02*
D03*
X5827Y18819D02*
D03*
X5394Y18346D02*
D03*
X5433Y21102D02*
D03*
X5906Y20787D02*
D03*
X5827Y21614D02*
D03*
X6378Y21220D02*
D03*
X7165Y21457D02*
D03*
X5315Y21850D02*
D03*
X6378D02*
D03*
X7402Y16417D02*
D03*
X8307Y16457D02*
D03*
X9213D02*
D03*
X9646Y17087D02*
D03*
X10197Y17323D02*
D03*
X5118Y23346D02*
D03*
X5079Y23976D02*
D03*
X4606Y23228D02*
D03*
Y23858D02*
D03*
X4921Y24528D02*
D03*
X6181Y24606D02*
D03*
Y25315D02*
D03*
X6102Y25945D02*
D03*
Y26654D02*
D03*
X6850D02*
D03*
X6811Y25118D02*
D03*
X6024Y23976D02*
D03*
X5551Y24606D02*
D03*
X310Y4186D02*
D03*
X910Y5386D02*
D03*
X310Y6586D02*
D03*
X910Y7786D02*
D03*
X310Y8986D02*
D03*
X910Y10186D02*
D03*
X310Y11386D02*
D03*
X910Y12586D02*
D03*
X310Y13786D02*
D03*
X910Y14986D02*
D03*
X310Y16186D02*
D03*
Y18586D02*
D03*
Y20986D02*
D03*
X910Y22186D02*
D03*
X310Y23386D02*
D03*
X910Y24586D02*
D03*
X310Y25786D02*
D03*
X1510Y4186D02*
D03*
X2110Y5386D02*
D03*
X1510Y6586D02*
D03*
X2110Y7786D02*
D03*
X1510Y8986D02*
D03*
X2110Y10186D02*
D03*
X1510Y11386D02*
D03*
X2110Y12586D02*
D03*
X1510Y13786D02*
D03*
X2110Y14986D02*
D03*
X1510Y16186D02*
D03*
Y23386D02*
D03*
X2110Y24586D02*
D03*
X1510Y25786D02*
D03*
X2710Y4186D02*
D03*
X3310Y5386D02*
D03*
X2710Y6586D02*
D03*
X3310Y7786D02*
D03*
X2710Y8986D02*
D03*
X3310Y10186D02*
D03*
X2710Y11386D02*
D03*
X3310Y12586D02*
D03*
X2710Y13786D02*
D03*
X3310Y14986D02*
D03*
X2710Y16186D02*
D03*
Y23386D02*
D03*
X3310Y24586D02*
D03*
X2710Y25786D02*
D03*
X3910Y4186D02*
D03*
X4510Y7786D02*
D03*
X3910Y8986D02*
D03*
X4510Y10186D02*
D03*
X3910Y11386D02*
D03*
X4510Y12586D02*
D03*
X3910Y13786D02*
D03*
X4510Y14986D02*
D03*
Y24586D02*
D03*
X5110Y4186D02*
D03*
X5710Y5386D02*
D03*
X5110Y6586D02*
D03*
X5710Y7786D02*
D03*
X5110Y8986D02*
D03*
X5710Y10186D02*
D03*
X5110Y11386D02*
D03*
X5710Y12586D02*
D03*
X5110Y13786D02*
D03*
X5710Y14986D02*
D03*
X5110Y25786D02*
D03*
X6310Y4186D02*
D03*
X6910Y5386D02*
D03*
X6310Y6586D02*
D03*
X6910Y7786D02*
D03*
X6310Y8986D02*
D03*
X6910Y10186D02*
D03*
X6310Y11386D02*
D03*
X6910Y12586D02*
D03*
X6310Y13786D02*
D03*
X6910Y14986D02*
D03*
X6310Y23386D02*
D03*
X7510Y4186D02*
D03*
X8110Y5386D02*
D03*
X7510Y6586D02*
D03*
X8110Y7786D02*
D03*
X7510Y8986D02*
D03*
X8110Y10186D02*
D03*
X7510Y11386D02*
D03*
X8110Y12586D02*
D03*
X7510Y13786D02*
D03*
X8110Y14986D02*
D03*
Y17386D02*
D03*
X7510Y23386D02*
D03*
X8110Y24586D02*
D03*
X7510Y25786D02*
D03*
X8710Y4186D02*
D03*
X9310Y5386D02*
D03*
X8710Y6586D02*
D03*
X9310Y7786D02*
D03*
X8710Y8986D02*
D03*
X9310Y10186D02*
D03*
X8710Y11386D02*
D03*
X9310Y12586D02*
D03*
X8710Y13786D02*
D03*
X9310Y14986D02*
D03*
X8710Y23386D02*
D03*
X9310Y24586D02*
D03*
X8710Y25786D02*
D03*
X9910Y4186D02*
D03*
X10510Y5386D02*
D03*
X9910Y6586D02*
D03*
X10510Y7786D02*
D03*
X9910Y8986D02*
D03*
X10510Y10186D02*
D03*
X9910Y11386D02*
D03*
X10510Y12586D02*
D03*
X9910Y13786D02*
D03*
X10510Y14986D02*
D03*
Y24586D02*
D03*
X9910Y25786D02*
D03*
X11110Y4186D02*
D03*
X11710Y5386D02*
D03*
X11110Y6586D02*
D03*
X11710Y7786D02*
D03*
X11110Y8986D02*
D03*
X11710Y10186D02*
D03*
X11110Y11386D02*
D03*
X11710Y12586D02*
D03*
X11110Y13786D02*
D03*
X11710Y14986D02*
D03*
X11110Y16186D02*
D03*
Y23386D02*
D03*
X11710Y24586D02*
D03*
X11110Y25786D02*
D03*
X12310Y4186D02*
D03*
X12910Y5386D02*
D03*
X12310Y6586D02*
D03*
X12910Y7786D02*
D03*
X12310Y8986D02*
D03*
X12910Y10186D02*
D03*
X12310Y11386D02*
D03*
X12910Y12586D02*
D03*
X12310Y13786D02*
D03*
X12910Y14986D02*
D03*
X12310Y20986D02*
D03*
X12910Y22186D02*
D03*
X12310Y25786D02*
D03*
X13510Y4186D02*
D03*
X14110Y5386D02*
D03*
X13510Y6586D02*
D03*
X14110Y7786D02*
D03*
X13510Y8986D02*
D03*
X14110Y10186D02*
D03*
X13510Y11386D02*
D03*
X14110Y12586D02*
D03*
X13510Y13786D02*
D03*
X14110Y14986D02*
D03*
X13510Y20986D02*
D03*
Y25786D02*
D03*
X14710Y4186D02*
D03*
X15310Y5386D02*
D03*
X14710Y6586D02*
D03*
X15310Y7786D02*
D03*
X14710Y8986D02*
D03*
X15310Y10186D02*
D03*
X14710Y11386D02*
D03*
X15310Y12586D02*
D03*
X14710Y13786D02*
D03*
X15310Y14986D02*
D03*
Y17386D02*
D03*
Y19786D02*
D03*
Y24586D02*
D03*
X14710Y25786D02*
D03*
X15910Y4186D02*
D03*
X16510Y7786D02*
D03*
X15910Y8986D02*
D03*
X16510Y10186D02*
D03*
X15910Y11386D02*
D03*
X16510Y12586D02*
D03*
X15910Y13786D02*
D03*
X16510Y14986D02*
D03*
Y24586D02*
D03*
X17110Y4186D02*
D03*
X17710Y5386D02*
D03*
X17110Y6586D02*
D03*
X17710Y7786D02*
D03*
X17110Y8986D02*
D03*
X17710Y10186D02*
D03*
X17110Y11386D02*
D03*
X17710Y12586D02*
D03*
X17110Y13786D02*
D03*
X17710Y14986D02*
D03*
Y24586D02*
D03*
X17110Y25786D02*
D03*
X18310Y4186D02*
D03*
X18910Y5386D02*
D03*
X18310Y6586D02*
D03*
X18910Y7786D02*
D03*
X18310Y8986D02*
D03*
X18910Y10186D02*
D03*
X18310Y11386D02*
D03*
X18910Y12586D02*
D03*
X18310Y13786D02*
D03*
X18910Y14986D02*
D03*
X18310Y16186D02*
D03*
Y23386D02*
D03*
Y25786D02*
D03*
X19510Y4186D02*
D03*
X20110Y5386D02*
D03*
X19510Y6586D02*
D03*
X20110Y7786D02*
D03*
X19510Y8986D02*
D03*
X20110Y10186D02*
D03*
X19510Y11386D02*
D03*
X20110Y12586D02*
D03*
X19510Y13786D02*
D03*
X20110Y14986D02*
D03*
X19510Y16186D02*
D03*
X20110Y17386D02*
D03*
X19510Y23386D02*
D03*
X20110Y24586D02*
D03*
X19510Y25786D02*
D03*
X1732Y16850D02*
D03*
X2559Y17047D02*
D03*
X3150Y17953D02*
D03*
X5945Y17638D02*
D03*
X9094Y17874D02*
D03*
X11850Y22795D02*
D03*
X15315Y20866D02*
D03*
X16890Y18228D02*
D03*
X17165Y19291D02*
D03*
X17087Y21220D02*
D03*
X16378Y22283D02*
D03*
X16772Y22992D02*
D03*
X591Y26654D02*
D03*
X2087D02*
D03*
X3346D02*
D03*
X4921D02*
D03*
X7717D02*
D03*
X8937D02*
D03*
X10236D02*
D03*
X11772D02*
D03*
X13071D02*
D03*
X14370D02*
D03*
X17480D02*
D03*
X18701D02*
D03*
X20039D02*
D03*
X2402Y20748D02*
D03*
D41*
X12795Y31299D02*
D03*
X13583Y29331D02*
D03*
X12795D02*
D03*
X12008Y31299D02*
D03*
X11220D02*
D03*
X12008Y29331D02*
D03*
X11220D02*
D03*
X10433Y31299D02*
D03*
Y29331D02*
D03*
X9646Y31299D02*
D03*
X8858D02*
D03*
X9646Y29331D02*
D03*
X8858D02*
D03*
X8071Y31299D02*
D03*
Y29331D02*
D03*
X7283Y31299D02*
D03*
Y29331D02*
D03*
X6496Y31299D02*
D03*
D42*
X4744Y20157D02*
D03*
Y19764D02*
D03*
Y19370D02*
D03*
X4350D02*
D03*
Y19764D02*
D03*
Y20157D02*
D03*
X3957D02*
D03*
Y19764D02*
D03*
Y19370D02*
D03*
M02*
