%FSLAX24Y24*%
%MOIN*%
G70*
G01*
G75*
G04 Layer_Color=16711935*
%ADD10R,0.0354X0.0276*%
%ADD11R,0.0512X0.0591*%
%ADD12R,0.0276X0.0354*%
%ADD13R,0.0256X0.0630*%
%ADD14O,0.0118X0.1181*%
%ADD15O,0.1181X0.0118*%
%ADD16R,0.1358X0.1358*%
%ADD17O,0.0768X0.0236*%
%ADD18O,0.0236X0.0768*%
%ADD19R,0.0118X0.0315*%
%ADD20R,0.0315X0.0157*%
%ADD21R,0.0118X0.0787*%
%ADD22C,0.0120*%
%ADD23R,0.0335X0.0374*%
%ADD24C,0.0080*%
%ADD25C,0.0197*%
%ADD26C,0.0118*%
%ADD27C,0.0276*%
%ADD28C,0.0200*%
%ADD29C,0.0150*%
%ADD30C,0.0100*%
%ADD31C,0.0250*%
%ADD32C,0.0394*%
%ADD33C,0.0236*%
%ADD34C,0.0984*%
%ADD35C,0.0591*%
%ADD36R,0.0591X0.0591*%
%ADD37C,0.0709*%
%ADD38R,0.0669X0.0669*%
%ADD39C,0.0669*%
%ADD40C,0.0200*%
%ADD41C,0.0394*%
%ADD42C,0.0240*%
%ADD43C,0.0098*%
%ADD44C,0.0079*%
%ADD45C,0.0039*%
%ADD46C,0.0063*%
%ADD47R,0.0285X0.0354*%
%ADD48R,0.1181X0.2116*%
%ADD49R,0.0433X0.0354*%
%ADD50R,0.0591X0.0669*%
%ADD51R,0.0354X0.0433*%
%ADD52R,0.0335X0.0709*%
%ADD53O,0.0197X0.1260*%
%ADD54O,0.1260X0.0197*%
%ADD55R,0.1437X0.1437*%
%ADD56O,0.0846X0.0315*%
%ADD57O,0.0315X0.0846*%
%ADD58R,0.0197X0.0394*%
%ADD59R,0.0394X0.0236*%
%ADD60R,0.0157X0.0827*%
%ADD61C,0.0159*%
%ADD62R,0.0413X0.0453*%
%ADD63C,0.1063*%
%ADD64C,0.0787*%
%ADD65R,0.0748X0.0748*%
%ADD66C,0.0748*%
%ADD67C,0.0004*%
D67*
X3150Y1768D02*
G03*
X1768Y3150I-1382J0D01*
G01*
X18508D02*
G03*
X17126Y1768I0J-1382D01*
G01*
Y30004D02*
G03*
X18508Y28622I1382J0D01*
G01*
X1770Y28616D02*
G03*
X3152Y29998I0J1382D01*
G01*
X4823Y5990D02*
G03*
X4823Y5990I-689J0D01*
G01*
X16831D02*
G03*
X16831Y5990I-689J0D01*
G01*
Y25782D02*
G03*
X16831Y25782I-689J0D01*
G01*
X4823D02*
G03*
X4823Y25782I-689J0D01*
G01*
X20276Y28620D02*
Y28622D01*
X18508Y28620D02*
X20276D01*
X3152Y29998D02*
Y31772D01*
X3150D02*
X3152D01*
X0Y28616D02*
X1770D01*
X0Y3150D02*
Y28616D01*
Y3150D02*
X1768D01*
X3150Y0D02*
X17126D01*
Y1768D01*
X20276Y3150D02*
Y28622D01*
X3150Y0D02*
Y1770D01*
X18506Y3150D02*
X20276D01*
X17126Y30002D02*
Y31772D01*
X3150D02*
X17126D01*
M02*
