%FSLAX24Y24*%
%MOIN*%
G70*
G01*
G75*
G04 Layer_Color=65535*
%ADD10R,0.0787X0.0492*%
%ADD11O,0.0098X0.0335*%
%ADD12R,0.0532X0.0256*%
%ADD13O,0.0354X0.0157*%
%ADD14R,0.0591X0.0945*%
%ADD15O,0.0354X0.0110*%
%ADD16O,0.0110X0.0354*%
%ADD17R,0.0945X0.0945*%
%ADD18R,0.0591X0.0748*%
%ADD19R,0.0591X0.0591*%
%ADD20R,0.0433X0.0394*%
%ADD21R,0.0276X0.0354*%
%ADD22R,0.0354X0.0276*%
%ADD23R,0.0118X0.0193*%
%ADD24R,0.0118X0.0205*%
%ADD25R,0.0512X0.0591*%
%ADD26C,0.0394*%
%ADD27R,0.0236X0.0394*%
%ADD28R,0.0591X0.0512*%
%ADD29O,0.0532X0.0217*%
%ADD30O,0.0217X0.0532*%
%ADD31R,0.0138X0.0394*%
%ADD32R,0.0512X0.0413*%
%ADD33R,0.0315X0.0394*%
%ADD34R,0.0591X0.0276*%
%ADD35C,0.0079*%
%ADD36C,0.0197*%
%ADD37C,0.0354*%
%ADD38C,0.0276*%
%ADD39C,0.0394*%
%ADD40C,0.0063*%
%ADD41C,0.0118*%
%ADD42C,0.0157*%
%ADD43C,0.0100*%
%ADD44R,0.0787X0.0492*%
%ADD45R,0.1811X0.0197*%
%ADD46R,0.0197X0.2589*%
%ADD47R,0.1004X0.0197*%
%ADD48R,0.0197X0.1969*%
%ADD49C,0.0669*%
%ADD50R,0.0669X0.0669*%
%ADD51C,0.0315*%
%ADD52C,0.0709*%
%ADD53C,0.0197*%
%ADD54C,0.0276*%
%ADD55C,0.0236*%
%ADD56C,0.0354*%
%ADD57R,0.1024X0.1378*%
%ADD58R,0.0669X0.0315*%
%ADD59C,0.0039*%
%ADD60C,0.0098*%
%ADD61C,0.0236*%
D35*
X2146Y-8071D02*
G03*
X2146Y-8071I-39J0D01*
G01*
X13000Y-11000D02*
Y-10000D01*
X8941D02*
X13000D01*
X8941Y-11000D02*
Y-10000D01*
Y-11000D02*
X13000D01*
X14193Y-591D02*
Y-571D01*
Y-1870D02*
Y-1850D01*
X15492Y-591D02*
Y-571D01*
Y-1870D02*
Y-1850D01*
X14193Y-571D02*
X14386D01*
X15299D02*
X15492D01*
X14193Y-1870D02*
X14386D01*
X15299D02*
X15492D01*
X19169Y-3689D02*
Y-2689D01*
Y-3689D02*
X21169D01*
Y-2689D01*
X19169D02*
X21169D01*
X18179Y-6230D02*
X18455D01*
X18179Y-5561D02*
X18455D01*
X12421Y-6791D02*
Y-4390D01*
X14823Y-6791D02*
Y-4390D01*
X12421Y-6791D02*
X14823D01*
X12421Y-4390D02*
X14823D01*
X19518Y-8159D02*
Y-7766D01*
Y-8159D02*
X19911D01*
X19518Y-4911D02*
Y-4518D01*
X19911D01*
X21093Y-8159D02*
X21486D01*
Y-7766D01*
Y-4911D02*
Y-4518D01*
X21093D02*
X21486D01*
X8071Y-7047D02*
Y-3307D01*
X8543Y-2717D02*
X9543D01*
X10039Y-7047D02*
Y-3307D01*
X8571Y-7638D02*
X9571D01*
X8333Y-10561D02*
X8202D01*
X8268D01*
Y-10889D01*
X8202Y-10955D01*
X8136D01*
X8071Y-10889D01*
X8727Y-10955D02*
X8464D01*
X8727Y-10692D01*
Y-10627D01*
X8661Y-10561D01*
X8530D01*
X8464Y-10627D01*
X17841Y-4938D02*
X17776Y-4872D01*
X17644D01*
X17579Y-4938D01*
Y-5200D01*
X17644Y-5266D01*
X17776D01*
X17841Y-5200D01*
X18235Y-5266D02*
X17972D01*
X18235Y-5003D01*
Y-4938D01*
X18169Y-4872D01*
X18038D01*
X17972Y-4938D01*
X18628Y-4872D02*
X18366D01*
Y-5069D01*
X18497Y-5003D01*
X18563D01*
X18628Y-5069D01*
Y-5200D01*
X18563Y-5266D01*
X18431D01*
X18366Y-5200D01*
X16447Y-2480D02*
X16775D01*
X16841Y-2415D01*
Y-2284D01*
X16775Y-2218D01*
X16447D01*
X16513Y-2087D02*
X16447Y-2021D01*
Y-1890D01*
X16513Y-1824D01*
X16578D01*
X16644Y-1890D01*
Y-1956D01*
Y-1890D01*
X16709Y-1824D01*
X16775D01*
X16841Y-1890D01*
Y-2021D01*
X16775Y-2087D01*
X5197Y-3701D02*
X5459Y-4094D01*
Y-3701D02*
X5197Y-4094D01*
X5590D02*
X5722D01*
X5656D01*
Y-3701D01*
X5590Y-3767D01*
X5148Y-8494D02*
Y-8822D01*
X5213Y-8888D01*
X5344D01*
X5410Y-8822D01*
Y-8494D01*
X5541D02*
X5804D01*
Y-8560D01*
X5541Y-8822D01*
Y-8888D01*
X2687Y-10335D02*
Y-10663D01*
X2753Y-10728D01*
X2884D01*
X2949Y-10663D01*
Y-10335D01*
X3343D02*
X3212Y-10400D01*
X3081Y-10532D01*
Y-10663D01*
X3146Y-10728D01*
X3277D01*
X3343Y-10663D01*
Y-10597D01*
X3277Y-10532D01*
X3081D01*
X10108Y-748D02*
Y-1076D01*
X10174Y-1142D01*
X10305D01*
X10371Y-1076D01*
Y-748D01*
X10764D02*
X10502D01*
Y-945D01*
X10633Y-879D01*
X10699D01*
X10764Y-945D01*
Y-1076D01*
X10699Y-1142D01*
X10567D01*
X10502Y-1076D01*
X14567Y-79D02*
Y-407D01*
X14633Y-472D01*
X14764D01*
X14829Y-407D01*
Y-79D01*
X15157Y-472D02*
Y-79D01*
X14961Y-276D01*
X15223D01*
X15197Y-7087D02*
Y-7415D01*
X15262Y-7480D01*
X15394D01*
X15459Y-7415D01*
Y-7087D01*
X15853Y-7480D02*
X15590D01*
X15853Y-7218D01*
Y-7152D01*
X15787Y-7087D01*
X15656D01*
X15590Y-7152D01*
X16752Y-7077D02*
Y-7405D01*
X16818Y-7470D01*
X16949D01*
X17014Y-7405D01*
Y-7077D01*
X17146Y-7470D02*
X17277D01*
X17211D01*
Y-7077D01*
X17146Y-7142D01*
X9436Y-1709D02*
X9370Y-1644D01*
X9239D01*
X9173Y-1709D01*
Y-1775D01*
X9239Y-1841D01*
X9370D01*
X9436Y-1906D01*
Y-1972D01*
X9370Y-2037D01*
X9239D01*
X9173Y-1972D01*
X9567Y-1644D02*
Y-2037D01*
X9698Y-1906D01*
X9829Y-2037D01*
Y-1644D01*
X9960Y-1709D02*
X10026Y-1644D01*
X10157D01*
X10223Y-1709D01*
Y-1775D01*
X10157Y-1841D01*
X10092D01*
X10157D01*
X10223Y-1906D01*
Y-1972D01*
X10157Y-2037D01*
X10026D01*
X9960Y-1972D01*
X19790Y-3963D02*
X19724Y-3898D01*
X19593D01*
X19528Y-3963D01*
Y-4029D01*
X19593Y-4095D01*
X19724D01*
X19790Y-4160D01*
Y-4226D01*
X19724Y-4291D01*
X19593D01*
X19528Y-4226D01*
X19921Y-3898D02*
Y-4291D01*
X20052Y-4160D01*
X20184Y-4291D01*
Y-3898D01*
X20315Y-4291D02*
X20446D01*
X20380D01*
Y-3898D01*
X20315Y-3963D01*
X18589Y-8639D02*
X18524Y-8573D01*
X18392D01*
X18327Y-8639D01*
Y-8704D01*
X18392Y-8770D01*
X18524D01*
X18589Y-8835D01*
Y-8901D01*
X18524Y-8967D01*
X18392D01*
X18327Y-8901D01*
X18720Y-8573D02*
X18983D01*
X18852D01*
Y-8967D01*
X19114D02*
X19245D01*
X19180D01*
Y-8573D01*
X19114Y-8639D01*
X5364Y-11171D02*
X4971D01*
Y-10974D01*
X5036Y-10909D01*
X5167D01*
X5233Y-10974D01*
Y-11171D01*
Y-11040D02*
X5364Y-10909D01*
X4971Y-10515D02*
X5036Y-10646D01*
X5167Y-10778D01*
X5299D01*
X5364Y-10712D01*
Y-10581D01*
X5299Y-10515D01*
X5233D01*
X5167Y-10581D01*
Y-10778D01*
X11900Y-3356D02*
X11506D01*
Y-3160D01*
X11572Y-3094D01*
X11703D01*
X11768Y-3160D01*
Y-3356D01*
Y-3225D02*
X11900Y-3094D01*
X11506Y-2700D02*
Y-2963D01*
X11703D01*
X11637Y-2832D01*
Y-2766D01*
X11703Y-2700D01*
X11834D01*
X11900Y-2766D01*
Y-2897D01*
X11834Y-2963D01*
X10423Y-9360D02*
Y-8967D01*
X10620D01*
X10686Y-9032D01*
Y-9163D01*
X10620Y-9229D01*
X10423D01*
X10554D02*
X10686Y-9360D01*
X11014D02*
Y-8967D01*
X10817Y-9163D01*
X11079D01*
X16230Y-5728D02*
X15837D01*
Y-5532D01*
X15902Y-5466D01*
X16034D01*
X16099Y-5532D01*
Y-5728D01*
Y-5597D02*
X16230Y-5466D01*
X15902Y-5335D02*
X15837Y-5269D01*
Y-5138D01*
X15902Y-5072D01*
X15968D01*
X16034Y-5138D01*
Y-5204D01*
Y-5138D01*
X16099Y-5072D01*
X16165D01*
X16230Y-5138D01*
Y-5269D01*
X16165Y-5335D01*
X16988Y-3415D02*
X16595D01*
Y-3219D01*
X16660Y-3153D01*
X16791D01*
X16857Y-3219D01*
Y-3415D01*
Y-3284D02*
X16988Y-3153D01*
Y-2759D02*
Y-3022D01*
X16726Y-2759D01*
X16660D01*
X16595Y-2825D01*
Y-2956D01*
X16660Y-3022D01*
X16398Y-3346D02*
X16004D01*
Y-3150D01*
X16070Y-3084D01*
X16201D01*
X16266Y-3150D01*
Y-3346D01*
Y-3215D02*
X16398Y-3084D01*
Y-2953D02*
Y-2822D01*
Y-2887D01*
X16004D01*
X16070Y-2953D01*
X18947Y-3317D02*
X18553D01*
Y-3579D01*
X18947Y-3973D02*
Y-3711D01*
X18553D01*
Y-3973D01*
X18750Y-3711D02*
Y-3842D01*
X18947Y-4104D02*
X18553D01*
Y-4301D01*
X18619Y-4366D01*
X18881D01*
X18947Y-4301D01*
Y-4104D01*
X18553Y-4498D02*
Y-4629D01*
Y-4563D01*
X18947D01*
X18881Y-4498D01*
X7687Y-9665D02*
Y-10059D01*
X7949D01*
X8081Y-9731D02*
X8146Y-9665D01*
X8277D01*
X8343Y-9731D01*
Y-9797D01*
X8277Y-9862D01*
X8212D01*
X8277D01*
X8343Y-9928D01*
Y-9993D01*
X8277Y-10059D01*
X8146D01*
X8081Y-9993D01*
X965Y-4980D02*
X1358D01*
Y-4718D01*
Y-4324D02*
Y-4587D01*
X1096Y-4324D01*
X1030D01*
X965Y-4390D01*
Y-4521D01*
X1030Y-4587D01*
X16260Y-7845D02*
Y-8238D01*
X16522D01*
X16653D02*
X16785D01*
X16719D01*
Y-7845D01*
X16653Y-7910D01*
X5597Y-10919D02*
X5532Y-10984D01*
Y-11116D01*
X5597Y-11181D01*
X5860D01*
X5925Y-11116D01*
Y-10984D01*
X5860Y-10919D01*
X5925Y-10525D02*
Y-10788D01*
X5663Y-10525D01*
X5597D01*
X5532Y-10591D01*
Y-10722D01*
X5597Y-10788D01*
X5925Y-10197D02*
X5532D01*
X5728Y-10394D01*
Y-10132D01*
X6020Y-5181D02*
X5955Y-5246D01*
Y-5377D01*
X6020Y-5443D01*
X6283D01*
X6348Y-5377D01*
Y-5246D01*
X6283Y-5181D01*
X6348Y-4787D02*
Y-5049D01*
X6086Y-4787D01*
X6020D01*
X5955Y-4853D01*
Y-4984D01*
X6020Y-5049D01*
Y-4656D02*
X5955Y-4590D01*
Y-4459D01*
X6020Y-4393D01*
X6086D01*
X6152Y-4459D01*
Y-4525D01*
Y-4459D01*
X6217Y-4393D01*
X6283D01*
X6348Y-4459D01*
Y-4590D01*
X6283Y-4656D01*
X2910Y-9810D02*
X2844Y-9744D01*
X2713D01*
X2648Y-9810D01*
Y-10072D01*
X2713Y-10138D01*
X2844D01*
X2910Y-10072D01*
X3304Y-10138D02*
X3041D01*
X3304Y-9875D01*
Y-9810D01*
X3238Y-9744D01*
X3107D01*
X3041Y-9810D01*
X3697Y-10138D02*
X3435D01*
X3697Y-9875D01*
Y-9810D01*
X3632Y-9744D01*
X3500D01*
X3435Y-9810D01*
X2930Y-10981D02*
X2864Y-10915D01*
X2733D01*
X2667Y-10981D01*
Y-11243D01*
X2733Y-11309D01*
X2864D01*
X2930Y-11243D01*
X3323Y-11309D02*
X3061D01*
X3323Y-11047D01*
Y-10981D01*
X3258Y-10915D01*
X3126D01*
X3061Y-10981D01*
X3454Y-11309D02*
X3586D01*
X3520D01*
Y-10915D01*
X3454Y-10981D01*
X4111Y-10909D02*
X4045Y-10974D01*
Y-11106D01*
X4111Y-11171D01*
X4373D01*
X4439Y-11106D01*
Y-10974D01*
X4373Y-10909D01*
X4439Y-10515D02*
Y-10778D01*
X4177Y-10515D01*
X4111D01*
X4045Y-10581D01*
Y-10712D01*
X4111Y-10778D01*
Y-10384D02*
X4045Y-10319D01*
Y-10187D01*
X4111Y-10122D01*
X4373D01*
X4439Y-10187D01*
Y-10319D01*
X4373Y-10384D01*
X4111D01*
X5902Y-6089D02*
X5837Y-6024D01*
X5705D01*
X5640Y-6089D01*
Y-6352D01*
X5705Y-6417D01*
X5837D01*
X5902Y-6352D01*
X6033Y-6417D02*
X6165D01*
X6099D01*
Y-6024D01*
X6033Y-6089D01*
X6361Y-6352D02*
X6427Y-6417D01*
X6558D01*
X6624Y-6352D01*
Y-6089D01*
X6558Y-6024D01*
X6427D01*
X6361Y-6089D01*
Y-6155D01*
X6427Y-6221D01*
X6624D01*
X5882Y-7664D02*
X5817Y-7599D01*
X5686D01*
X5620Y-7664D01*
Y-7927D01*
X5686Y-7992D01*
X5817D01*
X5882Y-7927D01*
X6014Y-7992D02*
X6145D01*
X6079D01*
Y-7599D01*
X6014Y-7664D01*
X6342D02*
X6407Y-7599D01*
X6538D01*
X6604Y-7664D01*
Y-7730D01*
X6538Y-7795D01*
X6604Y-7861D01*
Y-7927D01*
X6538Y-7992D01*
X6407D01*
X6342Y-7927D01*
Y-7861D01*
X6407Y-7795D01*
X6342Y-7730D01*
Y-7664D01*
X6407Y-7795D02*
X6538D01*
X2871Y-4560D02*
X2805Y-4626D01*
Y-4757D01*
X2871Y-4823D01*
X3133D01*
X3199Y-4757D01*
Y-4626D01*
X3133Y-4560D01*
X3199Y-4429D02*
Y-4298D01*
Y-4364D01*
X2805D01*
X2871Y-4429D01*
X2805Y-4101D02*
Y-3839D01*
X2871D01*
X3133Y-4101D01*
X3199D01*
X6798Y-3983D02*
X6732Y-3917D01*
X6601D01*
X6535Y-3983D01*
Y-4245D01*
X6601Y-4311D01*
X6732D01*
X6798Y-4245D01*
X6929Y-4311D02*
X7060D01*
X6995D01*
Y-3917D01*
X6929Y-3983D01*
X7519Y-3917D02*
X7388Y-3983D01*
X7257Y-4114D01*
Y-4245D01*
X7323Y-4311D01*
X7454D01*
X7519Y-4245D01*
Y-4180D01*
X7454Y-4114D01*
X7257D01*
X1808Y-3845D02*
X1742Y-3780D01*
X1611D01*
X1545Y-3845D01*
Y-4108D01*
X1611Y-4173D01*
X1742D01*
X1808Y-4108D01*
X1939Y-4173D02*
X2070D01*
X2004D01*
Y-3780D01*
X1939Y-3845D01*
X2529Y-3780D02*
X2267D01*
Y-3976D01*
X2398Y-3911D01*
X2464D01*
X2529Y-3976D01*
Y-4108D01*
X2464Y-4173D01*
X2332D01*
X2267Y-4108D01*
X1837Y-4770D02*
X1772Y-4705D01*
X1640D01*
X1575Y-4770D01*
Y-5033D01*
X1640Y-5098D01*
X1772D01*
X1837Y-5033D01*
X1968Y-5098D02*
X2100D01*
X2034D01*
Y-4705D01*
X1968Y-4770D01*
X2493Y-5098D02*
Y-4705D01*
X2296Y-4902D01*
X2559D01*
X6936Y-10919D02*
X6870Y-10984D01*
Y-11116D01*
X6936Y-11181D01*
X7198D01*
X7264Y-11116D01*
Y-10984D01*
X7198Y-10919D01*
X7264Y-10788D02*
Y-10656D01*
Y-10722D01*
X6870D01*
X6936Y-10788D01*
Y-10460D02*
X6870Y-10394D01*
Y-10263D01*
X6936Y-10197D01*
X7001D01*
X7067Y-10263D01*
Y-10328D01*
Y-10263D01*
X7133Y-10197D01*
X7198D01*
X7264Y-10263D01*
Y-10394D01*
X7198Y-10460D01*
X1778Y-5351D02*
X1713Y-5286D01*
X1581D01*
X1516Y-5351D01*
Y-5614D01*
X1581Y-5679D01*
X1713D01*
X1778Y-5614D01*
X1909Y-5679D02*
X2041D01*
X1975D01*
Y-5286D01*
X1909Y-5351D01*
X2500Y-5679D02*
X2237D01*
X2500Y-5417D01*
Y-5351D01*
X2434Y-5286D01*
X2303D01*
X2237Y-5351D01*
X12251Y-1322D02*
X12185Y-1388D01*
Y-1519D01*
X12251Y-1585D01*
X12513D01*
X12579Y-1519D01*
Y-1388D01*
X12513Y-1322D01*
X12579Y-1191D02*
Y-1060D01*
Y-1125D01*
X12185D01*
X12251Y-1191D01*
X12579Y-863D02*
Y-732D01*
Y-798D01*
X12185D01*
X12251Y-863D01*
X10666Y-8373D02*
X10600Y-8307D01*
X10469D01*
X10404Y-8373D01*
Y-8635D01*
X10469Y-8701D01*
X10600D01*
X10666Y-8635D01*
X10797Y-8701D02*
X10928D01*
X10863D01*
Y-8307D01*
X10797Y-8373D01*
X11125D02*
X11191Y-8307D01*
X11322D01*
X11387Y-8373D01*
Y-8635D01*
X11322Y-8701D01*
X11191D01*
X11125Y-8635D01*
Y-8373D01*
X12448Y-2238D02*
X12382Y-2303D01*
Y-2434D01*
X12448Y-2500D01*
X12710D01*
X12776Y-2434D01*
Y-2303D01*
X12710Y-2238D01*
Y-2106D02*
X12776Y-2041D01*
Y-1910D01*
X12710Y-1844D01*
X12448D01*
X12382Y-1910D01*
Y-2041D01*
X12448Y-2106D01*
X12513D01*
X12579Y-2041D01*
Y-1844D01*
X13028Y-2228D02*
X12963Y-2293D01*
Y-2425D01*
X13028Y-2490D01*
X13291D01*
X13356Y-2425D01*
Y-2293D01*
X13291Y-2228D01*
X13028Y-2097D02*
X12963Y-2031D01*
Y-1900D01*
X13028Y-1834D01*
X13094D01*
X13160Y-1900D01*
X13225Y-1834D01*
X13291D01*
X13356Y-1900D01*
Y-2031D01*
X13291Y-2097D01*
X13225D01*
X13160Y-2031D01*
X13094Y-2097D01*
X13028D01*
X13160Y-2031D02*
Y-1900D01*
X11129Y-7713D02*
X11063Y-7648D01*
X10932D01*
X10866Y-7713D01*
Y-7976D01*
X10932Y-8041D01*
X11063D01*
X11129Y-7976D01*
X11260Y-7648D02*
X11522D01*
Y-7713D01*
X11260Y-7976D01*
Y-8041D01*
X14662Y-2123D02*
X14596Y-2057D01*
X14465D01*
X14400Y-2123D01*
Y-2385D01*
X14465Y-2451D01*
X14596D01*
X14662Y-2385D01*
X15056Y-2057D02*
X14924Y-2123D01*
X14793Y-2254D01*
Y-2385D01*
X14859Y-2451D01*
X14990D01*
X15056Y-2385D01*
Y-2320D01*
X14990Y-2254D01*
X14793D01*
X12881Y-1145D02*
X12815Y-1211D01*
Y-1342D01*
X12881Y-1407D01*
X13143D01*
X13209Y-1342D01*
Y-1211D01*
X13143Y-1145D01*
X12815Y-752D02*
Y-1014D01*
X13012D01*
X12946Y-883D01*
Y-817D01*
X13012Y-752D01*
X13143D01*
X13209Y-817D01*
Y-948D01*
X13143Y-1014D01*
X13648Y-2218D02*
X13583Y-2284D01*
Y-2415D01*
X13648Y-2480D01*
X13911D01*
X13976Y-2415D01*
Y-2284D01*
X13911Y-2218D01*
X13976Y-1890D02*
X13583D01*
X13780Y-2087D01*
Y-1824D01*
X16030Y-1145D02*
X15965Y-1211D01*
Y-1342D01*
X16030Y-1407D01*
X16293D01*
X16358Y-1342D01*
Y-1211D01*
X16293Y-1145D01*
X16030Y-1014D02*
X15965Y-948D01*
Y-817D01*
X16030Y-752D01*
X16096D01*
X16161Y-817D01*
Y-883D01*
Y-817D01*
X16227Y-752D01*
X16293D01*
X16358Y-817D01*
Y-948D01*
X16293Y-1014D01*
X19167Y-7083D02*
X19232Y-7018D01*
Y-6886D01*
X19167Y-6821D01*
X18904D01*
X18839Y-6886D01*
Y-7018D01*
X18904Y-7083D01*
X18839Y-7477D02*
Y-7214D01*
X19101Y-7477D01*
X19167D01*
X19232Y-7411D01*
Y-7280D01*
X19167Y-7214D01*
X16798Y-6404D02*
X16732Y-6339D01*
X16601D01*
X16535Y-6404D01*
Y-6667D01*
X16601Y-6732D01*
X16732D01*
X16798Y-6667D01*
X16929Y-6732D02*
X17060D01*
X16995D01*
Y-6339D01*
X16929Y-6404D01*
D43*
X221Y146D02*
Y545D01*
X421Y745D01*
X621Y545D01*
Y146D01*
Y445D01*
X221D01*
X821Y146D02*
Y745D01*
X1221Y146D01*
Y745D01*
X1420D02*
X1820D01*
X1620D01*
Y146D01*
X2020D02*
X2220D01*
X2120D01*
Y745D01*
X2020Y645D01*
X18110Y-3110D02*
Y-2510D01*
X18410D01*
X18510Y-2610D01*
Y-2810D01*
X18410Y-2910D01*
X18110D01*
X18710Y-3110D02*
X18910D01*
X18810D01*
Y-2510D01*
X18710Y-2610D01*
D59*
X11850Y-394D02*
G03*
X11850Y-394I-20J0D01*
G01*
X14055Y-571D02*
G03*
X14055Y-571I-20J0D01*
G01*
X17480Y-7500D02*
G03*
X17480Y-7500I-20J0D01*
G01*
X138Y-3563D02*
Y-3406D01*
Y-3563D02*
X295D01*
X1004D02*
X1161D01*
Y-3406D01*
X138Y-374D02*
Y-177D01*
X335D01*
X965D02*
X1161D01*
Y-374D02*
Y-177D01*
X11821Y-531D02*
X11831D01*
X10925D02*
X10935D01*
X11821Y-1437D02*
X11831D01*
X10925D02*
X10935D01*
X11831Y-730D02*
Y-531D01*
Y-1437D02*
Y-1238D01*
X10925Y-730D02*
Y-531D01*
Y-1437D02*
Y-1238D01*
X5246Y-8297D02*
Y-8002D01*
X4951Y-8297D02*
X5246D01*
X3494D02*
X3789D01*
X3494D02*
Y-8002D01*
Y-6841D02*
Y-6545D01*
X3789D01*
X5246Y-6841D02*
Y-6545D01*
X4951D02*
X5246D01*
X18740Y-689D02*
Y-571D01*
X18622D02*
X18740D01*
X18622Y-2303D02*
X18740D01*
Y-2185D01*
X17008Y-571D02*
X17126D01*
X17008Y-689D02*
Y-571D01*
Y-2303D02*
X17126D01*
X17008D02*
Y-2185D01*
X3091Y-6791D02*
Y-6693D01*
X2992D02*
X3091D01*
X2205Y-6791D02*
Y-6693D01*
X2303D01*
X2205Y-7972D02*
Y-7874D01*
Y-7972D02*
X2303D01*
X3091D02*
Y-7874D01*
X2992Y-7972D02*
X3091D01*
X4882Y-5000D02*
X5000D01*
Y-4882D01*
X3346Y-5000D02*
X3465D01*
X3346D02*
Y-4882D01*
Y-3780D02*
Y-3661D01*
X3465D01*
X5000Y-3780D02*
Y-3661D01*
X4882D02*
X5000D01*
D60*
X5551Y-8238D02*
G03*
X5551Y-8238I-49J0D01*
G01*
X16900Y-610D02*
G03*
X16900Y-610I-49J0D01*
G01*
X15098Y-3967D02*
G03*
X15098Y-3967I-49J0D01*
G01*
D61*
X14547Y-4783D02*
G03*
X14547Y-4783I-118J0D01*
G01*
M02*
