%FSLAX24Y24*%
%MOIN*%
G70*
G01*
G75*
G04 Layer_Color=32896*
%ADD10R,0.0787X0.0492*%
%ADD11O,0.0098X0.0335*%
%ADD12R,0.0532X0.0256*%
%ADD13O,0.0354X0.0157*%
%ADD14R,0.0591X0.0945*%
%ADD15O,0.0354X0.0110*%
%ADD16O,0.0110X0.0354*%
%ADD17R,0.0945X0.0945*%
%ADD18R,0.0591X0.0748*%
%ADD19R,0.0591X0.0591*%
%ADD20R,0.0433X0.0394*%
%ADD21R,0.0276X0.0354*%
%ADD22R,0.0354X0.0276*%
%ADD23R,0.0118X0.0193*%
%ADD24R,0.0118X0.0205*%
%ADD25R,0.0512X0.0591*%
%ADD26C,0.0394*%
%ADD27R,0.0236X0.0394*%
%ADD28R,0.0591X0.0512*%
%ADD29O,0.0532X0.0217*%
%ADD30O,0.0217X0.0532*%
%ADD31R,0.0138X0.0394*%
%ADD32R,0.0512X0.0413*%
%ADD33R,0.0315X0.0394*%
%ADD34R,0.0591X0.0276*%
%ADD35C,0.0079*%
%ADD36C,0.0197*%
%ADD37C,0.0354*%
%ADD38C,0.0276*%
%ADD39C,0.0394*%
%ADD40C,0.0063*%
%ADD41C,0.0118*%
%ADD42C,0.0157*%
%ADD43C,0.0100*%
%ADD44R,0.0787X0.0492*%
%ADD45R,0.1811X0.0197*%
%ADD46R,0.0197X0.2589*%
%ADD47R,0.1004X0.0197*%
%ADD48R,0.0197X0.1969*%
%ADD49C,0.0669*%
%ADD50R,0.0669X0.0669*%
%ADD51C,0.0315*%
%ADD52C,0.0709*%
%ADD53C,0.0197*%
%ADD54C,0.0276*%
%ADD55C,0.0236*%
%ADD56C,0.0354*%
%ADD57R,0.1024X0.1378*%
%ADD58R,0.0669X0.0315*%
%ADD59C,0.0039*%
%ADD60C,0.0098*%
%ADD61C,0.0236*%
%ADD62R,0.0866X0.0571*%
%ADD63R,0.0867X0.0572*%
%ADD64O,0.0178X0.0415*%
%ADD65R,0.0612X0.0336*%
%ADD66O,0.0449X0.0252*%
%ADD67R,0.0671X0.1025*%
%ADD68O,0.0409X0.0165*%
%ADD69O,0.0165X0.0409*%
%ADD70R,0.1025X0.1025*%
%ADD71R,0.0671X0.0828*%
%ADD72R,0.0671X0.0671*%
%ADD73R,0.0513X0.0474*%
%ADD74R,0.0356X0.0434*%
%ADD75R,0.0434X0.0356*%
%ADD76R,0.0157X0.0232*%
%ADD77R,0.0157X0.0244*%
%ADD78R,0.0592X0.0671*%
%ADD79C,0.0474*%
%ADD80R,0.0316X0.0474*%
%ADD81R,0.0671X0.0592*%
%ADD82O,0.0612X0.0297*%
%ADD83O,0.0297X0.0612*%
%ADD84R,0.0218X0.0474*%
%ADD85R,0.0592X0.0493*%
%ADD86R,0.0395X0.0474*%
%ADD87R,0.0671X0.0356*%
%ADD88C,0.0749*%
%ADD89R,0.0749X0.0749*%
%ADD90C,0.0395*%
%ADD91C,0.0789*%
%ADD92C,0.0277*%
%ADD93C,0.0434*%
%ADD94R,0.1104X0.1458*%
%ADD95R,0.0749X0.0395*%
D35*
X7772Y-1012D02*
G03*
X6713Y-2697I4256J-3850D01*
G01*
X16283Y-8713D02*
G03*
X17343Y-7028I-4256J3850D01*
G01*
X6713D02*
G03*
X7772Y-8713I5315J2165D01*
G01*
X17343Y-2697D02*
G03*
X16283Y-1012I-5315J-2165D01*
G01*
X17402Y-11339D02*
Y-11142D01*
X17244Y-11339D02*
X17402D01*
Y-9449D02*
Y-9252D01*
X17244D02*
X17402D01*
X16260Y-11339D02*
Y-11142D01*
Y-11339D02*
X16417D01*
X16260Y-9252D02*
X16417D01*
X16260Y-9449D02*
Y-9252D01*
X17835Y-9370D02*
Y-8976D01*
X18228D01*
X20591D02*
X20984D01*
Y-9370D02*
Y-8976D01*
Y-11142D02*
Y-10748D01*
X20591Y-11142D02*
X20984D01*
X17835D02*
X18228D01*
X17835D02*
Y-10748D01*
X20368Y-8356D02*
X20499D01*
X20433D01*
Y-8684D01*
X20499Y-8750D01*
X20564D01*
X20630Y-8684D01*
X20236Y-8750D02*
X20105D01*
X20171D01*
Y-8356D01*
X20236Y-8422D01*
D43*
X6260Y-2874D02*
Y-2274D01*
X5960D01*
X5860Y-2374D01*
Y-2574D01*
X5960Y-2674D01*
X6260D01*
X5260Y-2874D02*
X5660D01*
X5260Y-2474D01*
Y-2374D01*
X5360Y-2274D01*
X5560D01*
X5660Y-2374D01*
X17585Y-8624D02*
X17645Y-8752D01*
X17576Y-8940D01*
X17448Y-9000D01*
X17354Y-8965D01*
X17294Y-8837D01*
X17363Y-8650D01*
X17303Y-8521D01*
X17209Y-8487D01*
X17081Y-8547D01*
X17013Y-8735D01*
X17072Y-8863D01*
X17747Y-8470D02*
X17183Y-8265D01*
X17440Y-8146D01*
X17320Y-7889D01*
X17884Y-8094D01*
X17525Y-7326D02*
X17389Y-7701D01*
X17901Y-7462D01*
X17995Y-7497D01*
X18055Y-7625D01*
X17986Y-7813D01*
X17858Y-7872D01*
M02*
