%FSLAX24Y24*%
%MOIN*%
G70*
G01*
G75*
G04 Layer_Physical_Order=2*
G04 Layer_Color=16711680*
%ADD10R,0.0787X0.0492*%
%ADD11O,0.0098X0.0335*%
%ADD12R,0.0532X0.0256*%
%ADD13O,0.0354X0.0157*%
%ADD14R,0.0591X0.0945*%
%ADD15O,0.0354X0.0110*%
%ADD16O,0.0110X0.0354*%
%ADD17R,0.0945X0.0945*%
%ADD18R,0.0591X0.0748*%
%ADD19R,0.0591X0.0591*%
%ADD20R,0.0433X0.0394*%
%ADD21R,0.0276X0.0354*%
%ADD22R,0.0354X0.0276*%
%ADD23R,0.0118X0.0193*%
%ADD24R,0.0118X0.0205*%
%ADD25R,0.0512X0.0591*%
%ADD26C,0.0394*%
%ADD27R,0.0236X0.0394*%
%ADD28R,0.0591X0.0512*%
%ADD29O,0.0532X0.0217*%
%ADD30O,0.0217X0.0532*%
%ADD31R,0.0138X0.0394*%
%ADD32R,0.0512X0.0413*%
%ADD33R,0.0315X0.0394*%
%ADD34R,0.0591X0.0276*%
%ADD35C,0.0079*%
%ADD36C,0.0197*%
%ADD37C,0.0354*%
%ADD38C,0.0276*%
%ADD39C,0.0394*%
%ADD40C,0.0063*%
%ADD41C,0.0118*%
%ADD42C,0.0157*%
%ADD43C,0.0100*%
%ADD44R,0.0787X0.0492*%
%ADD45R,0.1811X0.0197*%
%ADD46R,0.0197X0.2589*%
%ADD47R,0.1004X0.0197*%
%ADD48R,0.0197X0.1969*%
%ADD49C,0.0669*%
%ADD50R,0.0669X0.0669*%
%ADD51C,0.0315*%
%ADD52C,0.0709*%
%ADD53C,0.0197*%
%ADD54C,0.0276*%
%ADD55C,0.0236*%
%ADD56C,0.0354*%
%ADD57R,0.1024X0.1378*%
%ADD58R,0.0669X0.0315*%
G36*
X18691Y-1279D02*
X18691Y-1280D01*
X18689D01*
X18705Y-1482D01*
X18752Y-1679D01*
X18830Y-1866D01*
X18936Y-2039D01*
X19067Y-2193D01*
X19221Y-2324D01*
X19394Y-2430D01*
X19581Y-2508D01*
X19778Y-2555D01*
X19980Y-2571D01*
Y-2569D01*
X19980Y-2569D01*
X21151D01*
Y-3039D01*
X21151Y-3039D01*
Y-3339D01*
X21151Y-3339D01*
Y-11309D01*
X15450D01*
X15433Y-11262D01*
X15466Y-11234D01*
X15596Y-11082D01*
X15700Y-10912D01*
X15776Y-10728D01*
X15823Y-10534D01*
X15839Y-10335D01*
X15823Y-10136D01*
X15776Y-9942D01*
X15700Y-9757D01*
X15596Y-9587D01*
X15466Y-9435D01*
X15314Y-9306D01*
X15144Y-9202D01*
X14960Y-9125D01*
X14766Y-9079D01*
X14567Y-9063D01*
X14368Y-9079D01*
X14174Y-9125D01*
X13990Y-9202D01*
X13819Y-9306D01*
X13668Y-9435D01*
X13538Y-9587D01*
X13434Y-9757D01*
X13358Y-9942D01*
X13311Y-10136D01*
X13295Y-10335D01*
X13311Y-10534D01*
X13358Y-10728D01*
X13434Y-10912D01*
X13538Y-11082D01*
X13668Y-11234D01*
X13701Y-11262D01*
X13683Y-11309D01*
X2569D01*
Y-10138D01*
X2571D01*
X2555Y-9936D01*
X2508Y-9739D01*
X2430Y-9552D01*
X2324Y-9379D01*
X2193Y-9225D01*
X2039Y-9093D01*
X1866Y-8987D01*
X1679Y-8910D01*
X1482Y-8862D01*
X1280Y-8846D01*
Y-8848D01*
X1279Y-8848D01*
X108D01*
Y-3740D01*
X4331Y-3740D01*
X4331Y-144D01*
X4366Y-108D01*
X6138D01*
X6152Y-158D01*
X6062Y-214D01*
X5933Y-323D01*
X5824Y-451D01*
X5736Y-595D01*
X5671Y-751D01*
X5632Y-915D01*
X5619Y-1083D01*
X5632Y-1251D01*
X5671Y-1415D01*
X5736Y-1570D01*
X5824Y-1714D01*
X5933Y-1842D01*
X6062Y-1952D01*
X6205Y-2040D01*
X6361Y-2104D01*
X6525Y-2144D01*
X6693Y-2157D01*
X6861Y-2144D01*
X7025Y-2104D01*
X7181Y-2040D01*
X7324Y-1952D01*
X7452Y-1842D01*
X7562Y-1714D01*
X7650Y-1570D01*
X7715Y-1415D01*
X7754Y-1251D01*
X7767Y-1083D01*
X7754Y-915D01*
X7715Y-751D01*
X7650Y-595D01*
X7562Y-451D01*
X7452Y-323D01*
X7324Y-214D01*
X7234Y-158D01*
X7248Y-108D01*
X18691D01*
Y-1279D01*
D02*
G37*
%LPC*%
G36*
X18386Y-9334D02*
X18333Y-9344D01*
X18255Y-9397D01*
X18203Y-9475D01*
X18192Y-9528D01*
X18386D01*
Y-9334D01*
D02*
G37*
G36*
X15512Y-7941D02*
X15432Y-7957D01*
X15364Y-8002D01*
X15319Y-8070D01*
X15317Y-8079D01*
X12872D01*
X12836Y-8055D01*
X12756Y-8039D01*
X12676Y-8055D01*
X12608Y-8100D01*
X12563Y-8168D01*
X12547Y-8248D01*
X12563Y-8328D01*
X12608Y-8396D01*
X12676Y-8441D01*
X12756Y-8457D01*
X12836Y-8441D01*
X12872Y-8417D01*
X15354D01*
X15404Y-8426D01*
X15468Y-8414D01*
X15523Y-8377D01*
X15549Y-8351D01*
X15592Y-8342D01*
X15659Y-8297D01*
X15705Y-8229D01*
X15721Y-8150D01*
X15705Y-8070D01*
X15659Y-8002D01*
X15592Y-7957D01*
X15512Y-7941D01*
D02*
G37*
G36*
X18465Y-9334D02*
Y-9567D01*
Y-9800D01*
X18517Y-9789D01*
X18595Y-9737D01*
X18648Y-9659D01*
X18656Y-9619D01*
X18707Y-9619D01*
X18714Y-9654D01*
X18763Y-9729D01*
X18838Y-9778D01*
X18925Y-9796D01*
X19013Y-9778D01*
X19087Y-9729D01*
X19137Y-9654D01*
X19139Y-9641D01*
X19148Y-9595D01*
X19175Y-9591D01*
X19202Y-9595D01*
X19211Y-9641D01*
X19214Y-9654D01*
X19263Y-9729D01*
X19338Y-9778D01*
X19425Y-9796D01*
X19513Y-9778D01*
X19587Y-9729D01*
X19637Y-9654D01*
X19639Y-9641D01*
X19648Y-9595D01*
X19675Y-9591D01*
X19702Y-9595D01*
X19711Y-9641D01*
X19714Y-9654D01*
X19763Y-9729D01*
X19838Y-9778D01*
X19925Y-9796D01*
X20013Y-9778D01*
X20087Y-9729D01*
X20137Y-9654D01*
X20139Y-9641D01*
X20148Y-9595D01*
X20175Y-9591D01*
X20202Y-9595D01*
X20211Y-9641D01*
X20214Y-9654D01*
X20263Y-9729D01*
X20338Y-9778D01*
X20425Y-9796D01*
X20513Y-9778D01*
X20587Y-9729D01*
X20637Y-9654D01*
X20654Y-9567D01*
X20637Y-9479D01*
X20587Y-9405D01*
X20513Y-9356D01*
X20425Y-9338D01*
X20338Y-9356D01*
X20263Y-9405D01*
X20214Y-9479D01*
X20211Y-9493D01*
X20202Y-9539D01*
X20175Y-9543D01*
X20148Y-9539D01*
X20139Y-9493D01*
X20137Y-9479D01*
X20087Y-9405D01*
X20013Y-9356D01*
X19925Y-9338D01*
X19838Y-9356D01*
X19763Y-9405D01*
X19714Y-9479D01*
X19711Y-9493D01*
X19702Y-9539D01*
X19675Y-9543D01*
X19648Y-9539D01*
X19639Y-9493D01*
X19637Y-9479D01*
X19587Y-9405D01*
X19513Y-9356D01*
X19425Y-9338D01*
X19338Y-9356D01*
X19263Y-9405D01*
X19214Y-9479D01*
X19211Y-9493D01*
X19202Y-9539D01*
X19175Y-9543D01*
X19148Y-9539D01*
X19139Y-9493D01*
X19137Y-9479D01*
X19087Y-9405D01*
X19013Y-9356D01*
X18925Y-9338D01*
X18838Y-9356D01*
X18763Y-9405D01*
X18714Y-9479D01*
X18707Y-9515D01*
X18656Y-9515D01*
X18648Y-9475D01*
X18595Y-9397D01*
X18517Y-9344D01*
X18465Y-9334D01*
D02*
G37*
G36*
X16102Y-8887D02*
X16038Y-8899D01*
X15983Y-8936D01*
X15947Y-8991D01*
X15934Y-9055D01*
X15947Y-9120D01*
X15983Y-9174D01*
X16038Y-9211D01*
X16102Y-9224D01*
X16167Y-9211D01*
X16179Y-9203D01*
X16254D01*
X16390Y-9339D01*
X16409Y-9382D01*
X16409D01*
X16409Y-9382D01*
Y-9831D01*
X17213D01*
Y-9382D01*
X16740D01*
X16376Y-9018D01*
X16341Y-8994D01*
X16299Y-8986D01*
X16255D01*
X16222Y-8936D01*
X16167Y-8899D01*
X16102Y-8887D01*
D02*
G37*
G36*
X18386Y-9606D02*
X18192D01*
X18203Y-9659D01*
X18255Y-9737D01*
X18333Y-9789D01*
X18386Y-9800D01*
Y-9606D01*
D02*
G37*
G36*
X8031Y-7677D02*
X7639D01*
X7649Y-7751D01*
X7693Y-7856D01*
X7762Y-7947D01*
X7852Y-8016D01*
X7958Y-8060D01*
X8031Y-8069D01*
Y-7677D01*
D02*
G37*
G36*
Y-7206D02*
X7958Y-7216D01*
X7852Y-7260D01*
X7762Y-7329D01*
X7693Y-7419D01*
X7649Y-7525D01*
X7639Y-7598D01*
X8031D01*
Y-7206D01*
D02*
G37*
G36*
X8110D02*
Y-7598D01*
X8502D01*
X8493Y-7525D01*
X8449Y-7419D01*
X8380Y-7329D01*
X8289Y-7260D01*
X8184Y-7216D01*
X8110Y-7206D01*
D02*
G37*
G36*
X11575Y-7676D02*
X11529Y-7685D01*
X11490Y-7711D01*
X11465Y-7750D01*
X11456Y-7795D01*
X11465Y-7841D01*
X11490Y-7880D01*
X11530Y-7919D01*
X11569Y-7945D01*
X11614Y-7954D01*
X11660Y-7945D01*
X11698Y-7919D01*
X11724Y-7880D01*
X11733Y-7835D01*
X11724Y-7789D01*
X11698Y-7750D01*
X11659Y-7711D01*
X11620Y-7685D01*
X11575Y-7676D01*
D02*
G37*
G36*
X8502Y-7677D02*
X8110D01*
Y-8069D01*
X8184Y-8060D01*
X8289Y-8016D01*
X8380Y-7947D01*
X8449Y-7856D01*
X8493Y-7751D01*
X8502Y-7677D01*
D02*
G37*
G36*
X10039Y-7213D02*
X9929Y-7227D01*
X9827Y-7270D01*
X9739Y-7337D01*
X9671Y-7425D01*
X9629Y-7528D01*
X9614Y-7638D01*
X9629Y-7748D01*
X9671Y-7850D01*
X9739Y-7938D01*
X9827Y-8006D01*
X9929Y-8048D01*
X10039Y-8063D01*
X10149Y-8048D01*
X10252Y-8006D01*
X10340Y-7938D01*
X10407Y-7850D01*
X10450Y-7748D01*
X10464Y-7638D01*
X10450Y-7528D01*
X10407Y-7425D01*
X10340Y-7337D01*
X10252Y-7270D01*
X10149Y-7227D01*
X10039Y-7213D01*
D02*
G37*
G36*
X4961Y-9083D02*
X4881Y-9098D01*
X4813Y-9144D01*
X4768Y-9211D01*
X4752Y-9291D01*
X4768Y-9371D01*
X4812Y-9438D01*
Y-9978D01*
X4624Y-10166D01*
X3369D01*
X3082Y-9880D01*
X3067Y-9802D01*
X3022Y-9734D01*
X2954Y-9689D01*
X2874Y-9673D01*
X2794Y-9689D01*
X2726Y-9734D01*
X2681Y-9802D01*
X2665Y-9882D01*
X2681Y-9962D01*
X2726Y-10029D01*
X2794Y-10075D01*
X2872Y-10090D01*
X3202Y-10420D01*
X3250Y-10452D01*
X3307Y-10463D01*
X3307Y-10463D01*
X4685D01*
X4685Y-10463D01*
X4742Y-10452D01*
X4790Y-10420D01*
X5066Y-10144D01*
X5098Y-10096D01*
X5109Y-10039D01*
Y-9438D01*
X5153Y-9371D01*
X5169Y-9291D01*
X5153Y-9211D01*
X5108Y-9144D01*
X5041Y-9098D01*
X4961Y-9083D01*
D02*
G37*
G36*
X17224Y-10748D02*
X16850D01*
Y-10945D01*
X17224D01*
Y-10748D01*
D02*
G37*
G36*
X9492Y-10539D02*
X9120D01*
X9129Y-10608D01*
X9170Y-10708D01*
X9237Y-10795D01*
X9323Y-10861D01*
X9424Y-10903D01*
X9492Y-10912D01*
Y-10539D01*
D02*
G37*
G36*
X16772Y-10748D02*
X16398D01*
Y-10945D01*
X16772D01*
Y-10748D01*
D02*
G37*
G36*
Y-11024D02*
X16398D01*
Y-11220D01*
X16772D01*
Y-11024D01*
D02*
G37*
G36*
X17224D02*
X16850D01*
Y-11220D01*
X17224D01*
Y-11024D01*
D02*
G37*
G36*
X9943Y-10539D02*
X9571D01*
Y-10912D01*
X9639Y-10903D01*
X9740Y-10861D01*
X9826Y-10795D01*
X9893Y-10708D01*
X9934Y-10608D01*
X9943Y-10539D01*
D02*
G37*
G36*
X9492Y-10088D02*
X9424Y-10097D01*
X9323Y-10139D01*
X9237Y-10205D01*
X9170Y-10292D01*
X9129Y-10392D01*
X9120Y-10461D01*
X9492D01*
Y-10088D01*
D02*
G37*
G36*
X9571D02*
Y-10461D01*
X9943D01*
X9934Y-10392D01*
X9893Y-10292D01*
X9826Y-10205D01*
X9740Y-10139D01*
X9639Y-10097D01*
X9571Y-10088D01*
D02*
G37*
G36*
X10516Y-10095D02*
X10411Y-10109D01*
X10313Y-10149D01*
X10229Y-10214D01*
X10165Y-10297D01*
X10125Y-10395D01*
X10111Y-10500D01*
X10125Y-10605D01*
X10165Y-10703D01*
X10218Y-10772D01*
Y-10772D01*
X10219Y-10773D01*
X10219Y-10773D01*
X10219Y-10773D01*
X10219Y-10773D01*
X10219Y-10773D01*
X10216Y-10777D01*
X10214Y-10779D01*
X10186Y-10809D01*
X10185Y-10809D01*
X10185Y-10810D01*
X10185Y-10810D01*
X10184Y-10810D01*
X10182Y-10808D01*
X10182D01*
X10153Y-10789D01*
X10089Y-10776D01*
X10024Y-10789D01*
X9969Y-10826D01*
X9933Y-10880D01*
X9920Y-10945D01*
X9933Y-11009D01*
X9969Y-11064D01*
X10024Y-11101D01*
X10089Y-11113D01*
X10153Y-11101D01*
X10208Y-11064D01*
X10244Y-11009D01*
X10257Y-10945D01*
X10244Y-10880D01*
X10220Y-10845D01*
Y-10845D01*
X10218Y-10841D01*
X10218Y-10841D01*
X10218Y-10840D01*
X10218Y-10840D01*
X10219Y-10840D01*
X10250Y-10810D01*
X10250Y-10810D01*
X10252Y-10808D01*
X10252Y-10808D01*
X10252Y-10808D01*
X10255Y-10806D01*
X10255Y-10806D01*
X10255Y-10806D01*
X10256Y-10807D01*
X10256Y-10807D01*
X10313Y-10851D01*
X10411Y-10891D01*
X10516Y-10905D01*
X10621Y-10891D01*
X10718Y-10851D01*
X10802Y-10786D01*
X10867Y-10703D01*
X10907Y-10605D01*
X10921Y-10500D01*
X10907Y-10395D01*
X10867Y-10297D01*
X10802Y-10214D01*
X10718Y-10149D01*
X10621Y-10109D01*
X10516Y-10095D01*
D02*
G37*
G36*
X11500D02*
X11395Y-10109D01*
X11297Y-10149D01*
X11214Y-10214D01*
X11149Y-10297D01*
X11109Y-10395D01*
X11095Y-10500D01*
X11109Y-10605D01*
X11149Y-10703D01*
X11214Y-10786D01*
X11297Y-10851D01*
X11395Y-10891D01*
X11500Y-10905D01*
X11605Y-10891D01*
X11703Y-10851D01*
X11786Y-10786D01*
X11851Y-10703D01*
X11891Y-10605D01*
X11905Y-10500D01*
X11891Y-10395D01*
X11851Y-10297D01*
X11786Y-10214D01*
X11703Y-10149D01*
X11605Y-10109D01*
X11500Y-10095D01*
D02*
G37*
G36*
X12902Y-10098D02*
X12098D01*
Y-10902D01*
X12902D01*
Y-10098D01*
D02*
G37*
G36*
X20659Y-6670D02*
X20564Y-6689D01*
X20483Y-6743D01*
X20430Y-6824D01*
X20411Y-6919D01*
X20430Y-7015D01*
X20483Y-7095D01*
X20564Y-7149D01*
X20659Y-7168D01*
X20755Y-7149D01*
X20835Y-7095D01*
X20889Y-7015D01*
X20908Y-6919D01*
X20889Y-6824D01*
X20835Y-6743D01*
X20755Y-6689D01*
X20659Y-6670D01*
D02*
G37*
G36*
X8502Y-2756D02*
X8110D01*
Y-3148D01*
X8184Y-3138D01*
X8289Y-3095D01*
X8380Y-3025D01*
X8449Y-2935D01*
X8493Y-2830D01*
X8502Y-2756D01*
D02*
G37*
G36*
X10039Y-2292D02*
X9929Y-2306D01*
X9827Y-2349D01*
X9739Y-2416D01*
X9671Y-2504D01*
X9629Y-2607D01*
X9614Y-2717D01*
X9629Y-2827D01*
X9671Y-2929D01*
X9739Y-3017D01*
X9827Y-3085D01*
X9929Y-3127D01*
X10039Y-3141D01*
X10149Y-3127D01*
X10252Y-3085D01*
X10340Y-3017D01*
X10407Y-2929D01*
X10450Y-2827D01*
X10464Y-2717D01*
X10450Y-2607D01*
X10407Y-2504D01*
X10340Y-2416D01*
X10252Y-2349D01*
X10149Y-2306D01*
X10039Y-2292D01*
D02*
G37*
G36*
X20866Y-2780D02*
Y-2992D01*
X21078D01*
X21065Y-2961D01*
X20992Y-2866D01*
X20898Y-2793D01*
X20866Y-2780D01*
D02*
G37*
G36*
X21078Y-3386D02*
X20866D01*
Y-3598D01*
X20898Y-3584D01*
X20992Y-3512D01*
X21065Y-3417D01*
X21078Y-3386D01*
D02*
G37*
G36*
X17913Y-3040D02*
X17868Y-3049D01*
X17829Y-3075D01*
X17803Y-3114D01*
X17794Y-3159D01*
Y-3189D01*
X17803Y-3235D01*
X17829Y-3273D01*
X17868Y-3299D01*
X17913Y-3308D01*
X17959Y-3299D01*
X17998Y-3273D01*
X18024Y-3235D01*
X18033Y-3189D01*
Y-3159D01*
X18024Y-3114D01*
X17998Y-3075D01*
X17959Y-3049D01*
X17913Y-3040D01*
D02*
G37*
G36*
X8031Y-2756D02*
X7639D01*
X7649Y-2830D01*
X7693Y-2935D01*
X7762Y-3025D01*
X7852Y-3095D01*
X7958Y-3138D01*
X8031Y-3148D01*
Y-2756D01*
D02*
G37*
G36*
X14724Y-2361D02*
X14679Y-2370D01*
X14640Y-2396D01*
X14614Y-2435D01*
X14605Y-2480D01*
X14614Y-2526D01*
X14640Y-2565D01*
Y-2565D01*
X14679Y-2590D01*
X14724Y-2600D01*
X14770Y-2590D01*
X14809Y-2565D01*
X14835Y-2526D01*
X14844Y-2480D01*
X14835Y-2435D01*
X14809Y-2396D01*
X14809D01*
X14770Y-2370D01*
X14724Y-2361D01*
D02*
G37*
G36*
X15984Y-1446D02*
X15920Y-1458D01*
X15865Y-1495D01*
X15828Y-1550D01*
X15816Y-1614D01*
X15828Y-1679D01*
X15856Y-1720D01*
Y-1837D01*
X15653Y-2039D01*
X15605Y-2049D01*
X15550Y-2086D01*
X15514Y-2140D01*
X15501Y-2205D01*
X15514Y-2269D01*
X15549Y-2322D01*
X15546Y-2334D01*
X15532Y-2372D01*
X15284D01*
X15277Y-2361D01*
X15222Y-2325D01*
X15157Y-2312D01*
X15093Y-2325D01*
X15038Y-2361D01*
X15002Y-2416D01*
X14989Y-2480D01*
X15002Y-2545D01*
X15038Y-2600D01*
X15093Y-2636D01*
X15157Y-2649D01*
X15222Y-2636D01*
X15277Y-2600D01*
X15284Y-2589D01*
X16055D01*
X16062Y-2600D01*
X16117Y-2636D01*
X16181Y-2649D01*
X16246Y-2636D01*
X16300Y-2600D01*
X16337Y-2545D01*
X16350Y-2480D01*
X16337Y-2416D01*
X16300Y-2361D01*
X16246Y-2325D01*
X16181Y-2312D01*
X16117Y-2325D01*
X16062Y-2361D01*
X16055Y-2372D01*
X15807D01*
X15792Y-2334D01*
X15790Y-2322D01*
X15825Y-2269D01*
X15835Y-2221D01*
X16075Y-1981D01*
X16103Y-1939D01*
X16113Y-1890D01*
Y-1720D01*
X16140Y-1679D01*
X16153Y-1614D01*
X16140Y-1550D01*
X16103Y-1495D01*
X16049Y-1458D01*
X15984Y-1446D01*
D02*
G37*
G36*
X12244Y-1445D02*
X12164Y-1461D01*
X12097Y-1506D01*
X12051Y-1574D01*
X12035Y-1654D01*
X12051Y-1733D01*
X12076Y-1770D01*
Y-1819D01*
X12026Y-1835D01*
X12009Y-1810D01*
X11954Y-1773D01*
X11890Y-1761D01*
X11825Y-1773D01*
X11784Y-1801D01*
X11247D01*
X11206Y-1773D01*
X11142Y-1761D01*
X11077Y-1773D01*
X11023Y-1810D01*
X10986Y-1865D01*
X10973Y-1929D01*
X10986Y-1994D01*
X11023Y-2048D01*
X11077Y-2085D01*
X11142Y-2098D01*
X11206Y-2085D01*
X11247Y-2058D01*
X11784D01*
X11825Y-2085D01*
X11890Y-2098D01*
X11954Y-2085D01*
X12009Y-2048D01*
X12026Y-2024D01*
X12076Y-2039D01*
Y-2364D01*
X12051Y-2400D01*
X12035Y-2480D01*
X12051Y-2560D01*
X12097Y-2628D01*
X12164Y-2673D01*
X12244Y-2689D01*
X12324Y-2673D01*
X12392Y-2628D01*
X12437Y-2560D01*
X12453Y-2480D01*
X12437Y-2400D01*
X12413Y-2364D01*
Y-1770D01*
X12437Y-1733D01*
X12453Y-1654D01*
X12437Y-1574D01*
X12392Y-1506D01*
X12324Y-1461D01*
X12244Y-1445D01*
D02*
G37*
G36*
X8031Y-2285D02*
X7958Y-2295D01*
X7852Y-2338D01*
X7762Y-2408D01*
X7693Y-2498D01*
X7649Y-2603D01*
X7639Y-2677D01*
X8031D01*
Y-2285D01*
D02*
G37*
G36*
X8110D02*
Y-2677D01*
X8502D01*
X8493Y-2603D01*
X8449Y-2498D01*
X8380Y-2408D01*
X8289Y-2338D01*
X8184Y-2295D01*
X8110Y-2285D01*
D02*
G37*
G36*
X13465Y-2361D02*
X13419Y-2370D01*
X13380Y-2396D01*
X13354Y-2435D01*
X13345Y-2480D01*
X13354Y-2526D01*
X13380Y-2565D01*
Y-2565D01*
X13419Y-2590D01*
X13465Y-2600D01*
X13510Y-2590D01*
X13549Y-2565D01*
X13575Y-2526D01*
X13584Y-2480D01*
X13575Y-2435D01*
X13549Y-2396D01*
X13549D01*
X13510Y-2370D01*
X13465Y-2361D01*
D02*
G37*
G36*
X13780Y-5196D02*
X13715Y-5208D01*
X13660Y-5245D01*
X13624Y-5300D01*
X13611Y-5364D01*
X13624Y-5429D01*
X13660Y-5483D01*
X13715Y-5520D01*
X13780Y-5533D01*
X13844Y-5520D01*
X13899Y-5483D01*
X13906Y-5473D01*
X13981D01*
X14165Y-5657D01*
X14162Y-5669D01*
X14175Y-5734D01*
X14211Y-5788D01*
X14266Y-5825D01*
X14331Y-5838D01*
X14395Y-5825D01*
X14450Y-5788D01*
X14486Y-5734D01*
X14499Y-5669D01*
X14486Y-5605D01*
X14450Y-5550D01*
X14395Y-5514D01*
X14331Y-5501D01*
X14318Y-5503D01*
X14102Y-5288D01*
X14067Y-5264D01*
X14026Y-5256D01*
X13906D01*
X13899Y-5245D01*
X13844Y-5208D01*
X13780Y-5196D01*
D02*
G37*
G36*
X6004Y-5059D02*
X5571D01*
Y-5669D01*
X6004D01*
Y-5059D01*
D02*
G37*
G36*
X20659Y-5489D02*
X20564Y-5508D01*
X20483Y-5562D01*
X20430Y-5643D01*
X20411Y-5738D01*
X20430Y-5833D01*
X20483Y-5914D01*
X20564Y-5968D01*
X20659Y-5987D01*
X20755Y-5968D01*
X20835Y-5914D01*
X20889Y-5833D01*
X20908Y-5738D01*
X20889Y-5643D01*
X20835Y-5562D01*
X20755Y-5508D01*
X20659Y-5489D01*
D02*
G37*
G36*
X17801Y-6690D02*
X17736Y-6703D01*
X17682Y-6739D01*
X17674Y-6750D01*
X16781D01*
X16757Y-6734D01*
X16693Y-6721D01*
X16628Y-6734D01*
X16574Y-6771D01*
X16537Y-6825D01*
X16524Y-6890D01*
X16537Y-6954D01*
X16574Y-7009D01*
X16628Y-7046D01*
X16693Y-7058D01*
X16757Y-7046D01*
X16812Y-7009D01*
X16840Y-6967D01*
X17674D01*
X17682Y-6977D01*
X17736Y-7014D01*
X17801Y-7027D01*
X17865Y-7014D01*
X17920Y-6977D01*
X17957Y-6923D01*
X17969Y-6858D01*
X17957Y-6794D01*
X17920Y-6739D01*
X17865Y-6703D01*
X17801Y-6690D01*
D02*
G37*
G36*
X3683Y-5501D02*
X3619Y-5514D01*
X3564Y-5550D01*
X3527Y-5605D01*
X3518Y-5653D01*
X3256Y-5915D01*
X3228Y-5957D01*
X3221Y-5993D01*
X3191Y-6038D01*
X3178Y-6102D01*
X3191Y-6167D01*
X3227Y-6222D01*
X3282Y-6258D01*
X3346Y-6271D01*
X3411Y-6258D01*
X3466Y-6222D01*
X3502Y-6167D01*
X3515Y-6102D01*
X3502Y-6038D01*
X3500Y-6034D01*
X3699Y-5835D01*
X3748Y-5825D01*
X3802Y-5788D01*
X3839Y-5734D01*
X3852Y-5669D01*
X3839Y-5605D01*
X3802Y-5550D01*
X3748Y-5514D01*
X3683Y-5501D01*
D02*
G37*
G36*
X5177Y-5059D02*
X4744D01*
Y-5539D01*
X4705Y-5571D01*
X4695Y-5568D01*
X4630Y-5581D01*
X4576Y-5618D01*
X4539Y-5672D01*
X4526Y-5737D01*
X4539Y-5802D01*
X4576Y-5856D01*
X4630Y-5893D01*
X4643Y-5895D01*
X5034Y-6286D01*
X5034Y-6286D01*
X5082Y-6318D01*
X5139Y-6330D01*
X6592D01*
X6899Y-6636D01*
Y-7728D01*
X6854Y-7794D01*
X6839Y-7874D01*
X6854Y-7954D01*
X6900Y-8022D01*
X6938Y-8047D01*
Y-8791D01*
X6894Y-8857D01*
X6878Y-8937D01*
X6894Y-9017D01*
X6939Y-9085D01*
X7007Y-9130D01*
X7087Y-9146D01*
X7166Y-9130D01*
X7234Y-9085D01*
X7279Y-9017D01*
X7295Y-8937D01*
X7279Y-8857D01*
X7235Y-8791D01*
Y-7961D01*
X7240Y-7954D01*
X7256Y-7874D01*
X7240Y-7794D01*
X7196Y-7728D01*
Y-6575D01*
X7184Y-6518D01*
X7152Y-6470D01*
X7152Y-6470D01*
X6759Y-6076D01*
X6710Y-6044D01*
X6654Y-6033D01*
X6654Y-6033D01*
X5200D01*
X4887Y-5719D01*
X4908Y-5669D01*
X5177D01*
Y-5059D01*
D02*
G37*
G36*
X16417Y-3729D02*
X16353Y-3742D01*
X16312Y-3769D01*
X16011D01*
X15970Y-3742D01*
X15906Y-3729D01*
X15841Y-3742D01*
X15786Y-3778D01*
X15750Y-3833D01*
X15737Y-3898D01*
X15750Y-3962D01*
X15786Y-4017D01*
X15841Y-4053D01*
X15906Y-4066D01*
X15970Y-4053D01*
X16011Y-4026D01*
X16312D01*
X16353Y-4053D01*
X16417Y-4066D01*
X16482Y-4053D01*
X16537Y-4017D01*
X16573Y-3962D01*
X16586Y-3898D01*
X16573Y-3833D01*
X16537Y-3778D01*
X16482Y-3742D01*
X16417Y-3729D01*
D02*
G37*
G36*
X19262Y-2737D02*
X19250Y-2739D01*
X19237Y-2742D01*
X19237Y-2742D01*
X19236Y-2742D01*
X19225Y-2749D01*
X19215Y-2756D01*
X18102Y-3829D01*
X18102Y-3829D01*
X18101Y-3830D01*
X18094Y-3840D01*
X18087Y-3851D01*
X18087Y-3851D01*
X18087Y-3852D01*
X18084Y-3864D01*
X18081Y-3877D01*
X18081Y-3877D01*
X18081Y-3878D01*
Y-5531D01*
X18087Y-5558D01*
X18101Y-5580D01*
X18123Y-5595D01*
X18150Y-5600D01*
X18848D01*
X19423Y-7383D01*
X19425Y-7386D01*
X19425Y-7388D01*
X19431Y-7397D01*
X19436Y-7406D01*
X19438Y-7408D01*
X19440Y-7410D01*
X19449Y-7416D01*
X19457Y-7423D01*
X19460Y-7424D01*
X19462Y-7425D01*
X19472Y-7427D01*
X19483Y-7430D01*
X19485Y-7430D01*
X19488Y-7430D01*
X20276D01*
X20277Y-7430D01*
X20278Y-7430D01*
X20290Y-7428D01*
X20302Y-7425D01*
X20303Y-7425D01*
X20304Y-7424D01*
X20314Y-7417D01*
X20324Y-7410D01*
X20325Y-7409D01*
X20325Y-7409D01*
X20332Y-7398D01*
X20339Y-7388D01*
X20339Y-7387D01*
X20340Y-7386D01*
X20341Y-7374D01*
X20344Y-7362D01*
X20344Y-7361D01*
X20344Y-7360D01*
X20329Y-6946D01*
X20337Y-6909D01*
X20326Y-6858D01*
X20318Y-6610D01*
X20321Y-6605D01*
X20337Y-6526D01*
X20321Y-6446D01*
X20312Y-6432D01*
X20227Y-3974D01*
X20245Y-3462D01*
X20275Y-3446D01*
X20280Y-3446D01*
X20295Y-3445D01*
X20346Y-3512D01*
X20441Y-3584D01*
X20472Y-3598D01*
Y-3189D01*
Y-2780D01*
X20441Y-2793D01*
X20346Y-2866D01*
X20287Y-2943D01*
X20237Y-2926D01*
X20235Y-2804D01*
X20233Y-2792D01*
X20230Y-2779D01*
X20230Y-2779D01*
X20230Y-2778D01*
X20222Y-2768D01*
X20215Y-2757D01*
X20215Y-2757D01*
X20214Y-2756D01*
X20204Y-2749D01*
X20193Y-2742D01*
X20193Y-2742D01*
X20192Y-2742D01*
X20180Y-2739D01*
X20167Y-2737D01*
X19262Y-2737D01*
D02*
G37*
G36*
X6004Y-4055D02*
X5571D01*
Y-4665D01*
X6004D01*
Y-4055D01*
D02*
G37*
G36*
X11457Y-5068D02*
X11392Y-5080D01*
X11337Y-5117D01*
X11302Y-5171D01*
X11228Y-5244D01*
X11207Y-5277D01*
X11199Y-5315D01*
Y-5577D01*
X11180Y-5589D01*
X11143Y-5644D01*
X11131Y-5709D01*
X11143Y-5773D01*
X11180Y-5828D01*
X11235Y-5864D01*
X11299Y-5877D01*
X11364Y-5864D01*
X11418Y-5828D01*
X11455Y-5773D01*
X11468Y-5709D01*
X11455Y-5644D01*
X11418Y-5589D01*
X11400Y-5577D01*
Y-5433D01*
X11438Y-5401D01*
X11457Y-5405D01*
X11521Y-5392D01*
X11576Y-5355D01*
X11612Y-5301D01*
X11625Y-5236D01*
X11612Y-5172D01*
X11576Y-5117D01*
X11521Y-5080D01*
X11457Y-5068D01*
D02*
G37*
G36*
X5177Y-4055D02*
X4744D01*
Y-4665D01*
X5177D01*
Y-4055D01*
D02*
G37*
%LPD*%
G36*
X20167Y-2805D02*
X20177Y-3448D01*
X20159Y-3974D01*
X20276Y-7362D01*
X19488D01*
X18898Y-5531D01*
X18150D01*
Y-3878D01*
X19262Y-2805D01*
X20167Y-2805D01*
D02*
G37*
D35*
X13780Y-5364D02*
X14026D01*
X14331Y-5669D01*
X14331D01*
X16724Y-6858D02*
X17803D01*
X16693Y-6890D02*
X16724Y-6858D01*
X16102Y-9055D02*
X16102D01*
X16142Y-9016D01*
X16102Y-9094D02*
X16299D01*
X16142Y-9055D02*
Y-9016D01*
X16102Y-9094D02*
X16142Y-9055D01*
X16299Y-9094D02*
X16811Y-9606D01*
X15157Y-2480D02*
X16181D01*
D36*
X12756Y-8248D02*
X15394D01*
X15404Y-8258D01*
X15512Y-8150D01*
X12244Y-2480D02*
Y-1654D01*
D40*
X11299Y-5315D02*
X11417Y-5197D01*
X11457Y-5236D01*
X11299Y-5709D02*
Y-5315D01*
D41*
X15906Y-3898D02*
X16417D01*
X16417Y-3898D01*
X15669Y-2205D02*
X15984Y-1890D01*
Y-1614D01*
X11142Y-1929D02*
X11890D01*
X3346Y-6102D02*
Y-6006D01*
X3683Y-5669D01*
D42*
X3307Y-10315D02*
X4685D01*
X2874Y-9882D02*
X3307Y-10315D01*
X4685D02*
X4961Y-10039D01*
X7087Y-8937D02*
Y-7913D01*
X7047Y-7874D02*
Y-6575D01*
X6654Y-6181D02*
X7047Y-6575D01*
X5139Y-6181D02*
X6654D01*
X4695Y-5737D02*
X5139Y-6181D01*
X4961Y-10039D02*
Y-9291D01*
D43*
X17913Y-3189D02*
Y-3159D01*
X11575Y-7795D02*
X11614Y-7835D01*
X14724Y-2480D02*
X14724Y-2480D01*
X13465Y-2480D02*
X13465Y-2480D01*
D49*
X9531Y-10500D02*
D03*
X10516D02*
D03*
X11500D02*
D03*
X20669Y-3189D02*
D03*
D50*
X12500Y-10500D02*
D03*
X19669Y-3189D02*
D03*
D51*
X18425Y-9567D02*
D03*
X18925D02*
D03*
X19425D02*
D03*
X19925D02*
D03*
X20425D02*
D03*
D52*
X10039Y-7638D02*
D03*
Y-2717D02*
D03*
X8071D02*
D03*
Y-7638D02*
D03*
D53*
X14350Y-4843D02*
D03*
X14783Y-5285D02*
D03*
X16329Y-8642D02*
D03*
X10246Y-5699D02*
D03*
X9331Y-6644D02*
D03*
X11516Y-9006D02*
D03*
X10285Y-9567D02*
D03*
X9094Y-8937D02*
D03*
X8701Y-9596D02*
D03*
X9537Y-9911D02*
D03*
X9528Y-11033D02*
D03*
X14124Y-7726D02*
D03*
X12884Y-7707D02*
D03*
X11535Y-984D02*
D03*
X11220D02*
D03*
X14843Y-1457D02*
D03*
Y-945D02*
D03*
X4665Y-7717D02*
D03*
Y-7126D02*
D03*
X4075Y-7717D02*
D03*
Y-7126D02*
D03*
X4370Y-7421D02*
D03*
X1486Y-5492D02*
D03*
Y-3917D02*
D03*
X1171Y-5197D02*
D03*
X1161Y-4203D02*
D03*
X256Y-3927D02*
D03*
X14016Y-6339D02*
D03*
X12756Y-5787D02*
D03*
X12795Y-4724D02*
D03*
X11457Y-4252D02*
D03*
X10748D02*
D03*
X10984Y-7244D02*
D03*
X10748Y-8425D02*
D03*
X8701Y-6260D02*
D03*
X7520Y-6220D02*
D03*
X2008Y-4528D02*
D03*
X2402Y-9094D02*
D03*
X3465Y-10984D02*
D03*
X4882Y-10709D02*
D03*
X5669Y-9882D02*
D03*
X6102Y-10984D02*
D03*
X7795D02*
D03*
X8976Y-10118D02*
D03*
X10089Y-10945D02*
D03*
X11703Y-9715D02*
D03*
X11506Y-11083D02*
D03*
X13071Y-11024D02*
D03*
X12638Y-9961D02*
D03*
X12441Y-8858D02*
D03*
X14134Y-8839D02*
D03*
X16220Y-10984D02*
D03*
X16772Y-10394D02*
D03*
X17756Y-11063D02*
D03*
X19291Y-10709D02*
D03*
X20709Y-11024D02*
D03*
X20315Y-10118D02*
D03*
X20787Y-9134D02*
D03*
X19843Y-8386D02*
D03*
X18740Y-7992D02*
D03*
X16614Y-7559D02*
D03*
X15709Y-7677D02*
D03*
X15945Y-6811D02*
D03*
X20787Y-3976D02*
D03*
X18937Y-2598D02*
D03*
X16220Y-5709D02*
D03*
X16535Y-4567D02*
D03*
X16811Y-2677D02*
D03*
X17047Y-276D02*
D03*
X15866Y-236D02*
D03*
X14724D02*
D03*
X12638Y-1102D02*
D03*
X11929Y-984D02*
D03*
X10472Y-394D02*
D03*
X10315Y-1378D02*
D03*
X10591Y-2047D02*
D03*
X10906Y-3031D02*
D03*
X11417Y-3661D02*
D03*
X10315D02*
D03*
X9173Y-4606D02*
D03*
X9213Y-3622D02*
D03*
X9764Y-1024D02*
D03*
X9016Y-1732D02*
D03*
X9173Y-394D02*
D03*
X8268Y-1063D02*
D03*
X8031Y-315D02*
D03*
X7874Y-1890D02*
D03*
X8031Y-3622D02*
D03*
X8386Y-4331D02*
D03*
X8307Y-5157D02*
D03*
X7205Y-3819D02*
D03*
X7402Y-4606D02*
D03*
X7205Y-5354D02*
D03*
X6496Y-4764D02*
D03*
X5709Y-4449D02*
D03*
X6969Y-2559D02*
D03*
X6575Y-3346D02*
D03*
X5945Y-3937D02*
D03*
X5354Y-3189D02*
D03*
X5866Y-2520D02*
D03*
X5118Y-2283D02*
D03*
X5236Y-1260D02*
D03*
X5394Y-512D02*
D03*
X2756Y-3858D02*
D03*
X2165D02*
D03*
X4449Y-3110D02*
D03*
Y-1890D02*
D03*
Y-1260D02*
D03*
X17717Y-5354D02*
D03*
X18317Y-6575D02*
D03*
X18583Y-6467D02*
D03*
X17953Y-5315D02*
D03*
X17451Y-5335D02*
D03*
X827Y-8740D02*
D03*
X1250Y-8661D02*
D03*
X4449Y-236D02*
D03*
Y-709D02*
D03*
Y-2559D02*
D03*
X984Y-4685D02*
D03*
X1250Y-8031D02*
D03*
X236Y-8740D02*
D03*
X630Y-6417D02*
D03*
X256Y-6181D02*
D03*
Y-5748D02*
D03*
Y-5157D02*
D03*
Y-4498D02*
D03*
X13780Y-5364D02*
D03*
X17913Y-3159D02*
D03*
X5758Y-5266D02*
D03*
X6280Y-6496D02*
D03*
X3711Y-8287D02*
D03*
X4055Y-9764D02*
D03*
X3307D02*
D03*
X6772Y-9823D02*
D03*
X1781Y-5837D02*
D03*
X1978Y-8100D02*
D03*
X1575Y-7894D02*
D03*
X1250Y-7579D02*
D03*
Y-7067D02*
D03*
Y-6535D02*
D03*
X18199Y-9823D02*
D03*
X18081Y-9567D02*
D03*
X9114Y-8435D02*
D03*
X9508Y-8081D02*
D03*
X7087Y-10187D02*
D03*
X7402Y-9823D02*
D03*
X2077Y-6614D02*
D03*
X2333Y-8228D02*
D03*
X2854Y-5591D02*
D03*
Y-4961D02*
D03*
X3287Y-3976D02*
D03*
X4193Y-3967D02*
D03*
X5404Y-4961D02*
D03*
X6634Y-7244D02*
D03*
X6644Y-6811D02*
D03*
X8652Y-7333D02*
D03*
X8661Y-2717D02*
D03*
X13553Y-433D02*
D03*
X13287Y-1447D02*
D03*
X13947D02*
D03*
X18386Y-3386D02*
D03*
X17441Y-3602D02*
D03*
X18150Y-6870D02*
D03*
X17801Y-6858D02*
D03*
X12008Y-7008D02*
D03*
X11535Y-6693D02*
D03*
X14331Y-2874D02*
D03*
X13976Y-2480D02*
D03*
X15669Y-4803D02*
D03*
Y-4488D02*
D03*
X15246Y-4193D02*
D03*
X11457Y-5236D02*
D03*
X11299Y-5709D02*
D03*
X16102Y-9055D02*
D03*
X6260Y-7520D02*
D03*
X16693Y-6890D02*
D03*
X14331Y-5669D02*
D03*
X16181Y-2480D02*
D03*
X15157D02*
D03*
X15787Y-1220D02*
D03*
X11378Y-315D02*
D03*
X11142D02*
D03*
X15906Y-3898D02*
D03*
X16417Y-3898D02*
D03*
X15669Y-2205D02*
D03*
X15984Y-1614D02*
D03*
X11142Y-1929D02*
D03*
X11890D02*
D03*
X2008Y-8543D02*
D03*
X4695Y-5737D02*
D03*
X3346Y-6102D02*
D03*
X3683Y-5669D02*
D03*
X3907Y-5492D02*
D03*
X2520Y-5276D02*
D03*
X2126Y-6969D02*
D03*
X2362Y-6575D02*
D03*
X2421Y-5965D02*
D03*
X2087Y-6260D02*
D03*
X4843Y-8701D02*
D03*
X3701Y-8661D02*
D03*
X4488Y-9764D02*
D03*
X2638Y-6575D02*
D03*
Y-8051D02*
D03*
Y-7333D02*
D03*
X17254Y-5896D02*
D03*
D54*
X12756Y-8248D02*
D03*
X19744Y-6732D02*
D03*
X20128Y-6909D02*
D03*
Y-6526D02*
D03*
X7087Y-8937D02*
D03*
X15512Y-8150D02*
D03*
X12244Y-1654D02*
D03*
Y-2480D02*
D03*
X11614Y-7835D02*
D03*
X14724Y-2480D02*
D03*
X13465D02*
D03*
X12992D02*
D03*
X7047Y-7874D02*
D03*
X2874Y-9882D02*
D03*
X4961Y-9291D02*
D03*
X11998Y-7470D02*
D03*
D55*
X18366Y-453D02*
D03*
X16693Y-1772D02*
D03*
X16358Y-1407D02*
D03*
D56*
X20659Y-5738D02*
D03*
Y-6919D02*
D03*
D57*
X18681Y-4823D02*
D03*
X5374Y-4862D02*
D03*
D58*
X16811Y-10984D02*
D03*
Y-9606D02*
D03*
M02*
